<svg width="23.999999999999996" height="23.749999999999996" xmlns="http://www.w3.org/2000/svg">

 <g>
  <title>background</title>
  <rect fill="none" id="canvas_background" height="402" width="582" y="-1" x="-1"/>
 </g>
 <g>
  <title>Layer 1</title>
  <path fill="#ffffff" id="svg_1" d="m12.41421,19l-4.41421,0l0,-4.41421l11.60001,-11.59998l4.41421,4.41422l-11.60001,11.59997zm8.77158,-11.59998l-1.58579,-1.58579l-1.18578,1.18577l1.58578,1.58579l1.18579,-1.18577zm-4.18578,1.0142l-7.00001,6.99999l0,1.58579l1.58579,0l7.00001,-6.99999l-1.58579,-1.58579zm-12.00001,8.58578l0,2l-1,0c-2.20914,0 -4,-1.79086 -4,-4c0,-2.21904 1.63169,-4.10039 3.82843,-4.41421l1.74518,-0.24932c1.22565,-0.17509 2.34274,-0.79868 3.13504,-1.75007l0.41846,-0.50248c0.34973,-0.41995 0.2928,-1.0439 -0.12715,-1.39363c-0.09584,-0.07982 -0.2059,-0.1408 -0.32439,-0.17972c-1.28337,-0.42161 -2.3547,-0.79955 -3.21583,-1.13476c-1.70116,-0.6622 -2.99552,-2.23055 -3.91709,-4.62788l1.86682,-0.71763c0.73729,1.91796 1.67388,3.05282 2.77577,3.48174c0.82397,0.32074 1.86276,0.6872 3.11454,1.09844c0.35798,0.1176 0.6905,0.30182 0.98005,0.54295c1.26874,1.05658 1.44072,2.94162 0.38414,4.21036l-0.41846,0.50248c-1.10922,1.33194 -2.67315,2.20497 -4.38906,2.4501l-1.74518,0.24932c-1.21144,0.17306 -2.11127,1.21057 -2.11127,2.43431c0,1.10457 0.89543,2 2,2l1,0z" fill-rule="evenodd"/>
  <text id="svg_2" font-family="'Helvetica Neue', Helvetica, Arial-Unicode, Arial, Sans-serif" font-weight="bold" font-size="5px" fill="#000000" y="34" x="0">Created by Andrejs Kirma</text>
  <text id="svg_3" font-family="'Helvetica Neue', Helvetica, Arial-Unicode, Arial, Sans-serif" font-weight="bold" font-size="5px" fill="#000000" y="39" x="0">from the Noun Project</text>
 </g>
</svg>