<svg xmlns="http://www.w3.org/2000/svg" viewBox="0 0 24 23.75" x="0px" y="0px"><path fill-rule="evenodd" d="M276.414213,621 L272,621 L272,616.585786 L283.600007,604.985812 L288.014221,609.400025 L276.414213,621 Z M285.185788,609.40002 L283.600002,607.814234 L282.414218,609.000004 L284.000004,610.585791 L285.185788,609.40002 Z M281.00001,610.414224 L274,617.414214 L274,619 L275.585787,619 L282.585797,612.00001 L281.00001,610.414224 Z M269,619 L269,621 L268,621 C265.790861,621 264,619.209139 264,617 C264,614.780963 265.631692,612.899606 267.828427,612.585786 L269.573611,612.336474 C270.799256,612.161382 271.916352,611.537786 272.708648,610.586404 L273.127111,610.083918 C273.47684,609.663966 273.419913,609.040016 272.999961,608.690286 C272.904121,608.610472 272.794056,608.549495 272.675565,608.510569 C271.392204,608.088961 270.320871,607.711022 269.459735,607.375813 C267.758579,606.713613 266.464218,605.145257 265.54265,602.747929 L267.409467,602.030297 C268.146761,603.948263 269.083352,605.083116 270.185236,605.51204 C271.00921,605.832784 272.048005,606.199244 273.299781,606.610476 C273.657763,606.728079 273.990285,606.912299 274.279832,607.153429 C275.548567,608.210012 275.720551,610.095054 274.663968,611.363789 L274.245506,611.866275 C273.136291,613.19821 271.572356,614.071244 269.856454,614.316373 L268.11127,614.565685 C266.899832,614.738748 266,615.776263 266,617 C266,618.104569 266.895431,619 268,619 L269,619 Z" transform="translate(-264 -602)"/><text x="0" y="34" fill="#000000" font-size="5px" font-weight="bold" font-family="'Helvetica Neue', Helvetica, Arial-Unicode, Arial, Sans-serif">Created by Andrejs Kirma</text><text x="0" y="39" fill="#000000" font-size="5px" font-weight="bold" font-family="'Helvetica Neue', Helvetica, Arial-Unicode, Arial, Sans-serif">from the Noun Project</text></svg>