<svg width="100" height="100" xmlns="http://www.w3.org/2000/svg">
 <!-- Created with Method Draw - http://github.com/duopixel/Method-Draw/ -->
 <g>
  <title>Layer 1</title>
 </g>
 <g>
  <title>background</title>
  <path fill="#ffffff" stroke="null" id="svg_1" d="m85.346594,26.838946c1.789622,-1.789621 2.838228,-4.110537 2.95008,-6.557285c0.125832,-2.5586 -0.768978,-4.921459 -2.530637,-6.669137l-6.40349,-6.403489c-3.537299,-3.523318 -9.46542,-3.341559 -13.240403,0.433424l-4.977385,4.977385l0,0l-50.864401,50.864401l-2.740358,21.950827l21.950827,-2.740358l55.855767,-55.855768zm-24.187854,-5.690437l10.667822,10.667822l-41.175277,41.18926l-10.667823,-10.667823l41.175278,-41.189259zm9.255699,-9.255699c1.412123,-1.412123 3.523318,-1.607863 4.697757,-0.433424l6.403489,6.40349c0.531294,0.531294 0.796941,1.28629 0.768979,2.111194c-0.041945,0.936755 -0.461387,1.859529 -1.188421,2.586562l-4.977385,4.977385l-10.667822,-10.667822l4.963403,-4.977385zm-54.471607,54.946975l10.192454,10.192454l-11.660503,1.454068l1.468049,-11.646522z"/>
  <rect fill="#ffffff" stroke="null" id="svg_2" height="6.32" width="79.289989" y="91.009999" x="7.69"/>
 </g>
</svg>