<svg xmlns:dc="http://purl.org/dc/elements/1.1/" xmlns:cc="http://creativecommons.org/ns#" xmlns:rdf="http://www.w3.org/1999/02/22-rdf-syntax-ns#" xmlns:svg="http://www.w3.org/2000/svg" xmlns="http://www.w3.org/2000/svg" xmlns:sodipodi="http://sodipodi.sourceforge.net/DTD/sodipodi-0.dtd" xmlns:inkscape="http://www.inkscape.org/namespaces/inkscape" viewBox="0 0 100 125" version="1.1" x="0px" y="0px"><g transform="translate(0,-952.36216)"><path style="opacity:1;fill:#000000;fill-opacity:1;stroke:none" d="M 34.914062 12.212891 L 29.662109 21.308594 L 34.914062 30.404297 L 45.414062 30.404297 L 50.666016 21.308594 L 45.414062 12.212891 L 34.914062 12.212891 z M 67.574219 12.365234 L 62.320312 21.460938 L 67.574219 30.556641 L 78.074219 30.556641 L 83.326172 21.460938 L 78.074219 12.365234 L 67.574219 12.365234 z M 35.509766 13.248047 L 44.816406 13.248047 L 49.470703 21.308594 L 44.816406 29.367188 L 35.509766 29.367188 L 30.857422 21.308594 L 35.509766 13.248047 z M 68.169922 13.400391 L 77.476562 13.400391 L 82.130859 21.460938 L 77.476562 29.519531 L 68.169922 29.519531 L 63.517578 21.460938 L 68.169922 13.400391 z M 18.316406 21.568359 L 13.064453 30.664062 L 18.316406 39.757812 L 28.818359 39.757812 L 34.070312 30.664062 L 28.818359 21.568359 L 18.316406 21.568359 z M 50.957031 21.767578 L 45.705078 30.861328 L 50.957031 39.957031 L 61.457031 39.957031 L 66.708984 30.861328 L 61.457031 21.767578 L 50.957031 21.767578 z M 18.914062 22.603516 L 28.220703 22.603516 L 32.873047 30.664062 L 28.220703 38.722656 L 18.914062 38.722656 L 14.259766 30.664062 L 18.914062 22.603516 z M 51.554688 22.802734 L 60.861328 22.802734 L 65.513672 30.861328 L 60.861328 38.921875 L 51.554688 38.921875 L 46.900391 30.861328 L 51.554688 22.802734 z M 50.957031 40.90625 L 45.705078 50.001953 L 50.957031 59.097656 L 61.457031 59.097656 L 66.708984 50.001953 L 61.457031 40.90625 L 50.957031 40.90625 z M 51.554688 41.941406 L 60.861328 41.941406 L 65.513672 50.001953 L 60.861328 58.060547 L 51.554688 58.060547 L 46.900391 50.001953 L 51.554688 41.941406 z M 34.773438 49.929688 L 29.521484 59.023438 L 34.773438 68.119141 L 45.273438 68.119141 L 50.525391 59.023438 L 45.273438 49.929688 L 34.773438 49.929688 z M 67.431641 50.082031 L 62.179688 59.177734 L 67.431641 68.273438 L 77.933594 68.273438 L 83.185547 59.177734 L 77.933594 50.082031 L 67.431641 50.082031 z M 35.369141 50.964844 L 44.675781 50.964844 L 49.330078 59.023438 L 44.675781 67.083984 L 35.369141 67.083984 L 30.716797 59.023438 L 35.369141 50.964844 z M 68.029297 51.117188 L 77.335938 51.117188 L 81.990234 59.177734 L 77.335938 67.236328 L 68.029297 67.236328 L 63.376953 59.177734 L 68.029297 51.117188 z M 18.175781 59.283203 L 12.923828 68.378906 L 18.175781 77.474609 L 28.675781 77.474609 L 33.929688 68.378906 L 28.675781 59.283203 L 18.175781 59.283203 z M 18.773438 60.320312 L 28.080078 60.320312 L 32.732422 68.378906 L 28.080078 76.439453 L 18.773438 76.439453 L 14.119141 68.378906 L 18.773438 60.320312 z M 34.703125 69.068359 L 29.451172 78.164062 L 34.703125 87.259766 L 45.203125 87.259766 L 50.455078 78.164062 L 45.203125 69.068359 L 34.703125 69.068359 z M 35.298828 70.105469 L 44.605469 70.105469 L 49.259766 78.164062 L 44.605469 86.224609 L 35.298828 86.224609 L 30.646484 78.164062 L 35.298828 70.105469 z " transform="translate(0,952.36216)"/></g><text x="0" y="115" fill="#000000" font-size="5px" font-weight="bold" font-family="'Helvetica Neue', Helvetica, Arial-Unicode, Arial, Sans-serif">Created by Adam Robinson</text><text x="0" y="120" fill="#000000" font-size="5px" font-weight="bold" font-family="'Helvetica Neue', Helvetica, Arial-Unicode, Arial, Sans-serif">from the Noun Project</text></svg>