<svg xmlns="http://www.w3.org/2000/svg" xmlns:xlink="http://www.w3.org/1999/xlink" version="1.1" x="0px" y="0px" viewBox="12.937 17.234 486.829 597.79375" style="enable-background:new 12.937 17.234 486.829 478.235;" xml:space="preserve"><g><path d="M44.3,183.469L75.186,236.9c0.715,1.236,2.035,1.998,3.463,1.998h123.366c1.429,0,2.75-0.762,3.464-2l30.857-53.434   l30.797-53.43c0.712-1.236,0.712-2.759,0-3.995l-30.8-53.437l-30.856-53.371c-0.715-1.236-2.035-1.998-3.463-1.998H78.649   c-1.428,0-2.747,0.761-3.462,1.997L44.298,72.606l-30.826,53.432c-0.713,1.237-0.713,2.761,0,3.998L44.3,183.469z M51.225,76.608   l29.73-51.375h118.752l29.698,51.369l29.645,51.435l-29.644,51.429l-29.701,51.432H80.957l-29.729-51.43l-29.673-51.431   L51.225,76.608z"/><path d="M236.335,329.178l-30.856-53.432c-0.714-1.237-2.035-2-3.464-2H78.649c-1.428,0-2.748,0.762-3.463,1.998l-30.888,53.435   l-30.826,53.43c-0.713,1.237-0.713,2.761,0,3.998L44.3,440.041l30.886,53.43c0.715,1.236,2.035,1.998,3.463,1.998h123.366   c1.429,0,2.749-0.762,3.464-2l30.857-53.433l30.797-53.432c0.712-1.236,0.712-2.758,0-3.994L236.335,329.178z M229.407,436.039   l-29.701,51.43H80.957L51.228,436.04l-29.673-51.433l29.671-51.428l29.731-51.434h118.749l29.7,51.429l29.645,51.433   L229.407,436.039z"/><path d="M499.23,254.319l-30.83-53.432l-30.854-53.366c-0.715-1.236-2.035-1.998-3.463-1.998H310.688c-1.429,0-2.749,0.762-3.464,2   l-61.688,106.795c-0.715,1.238-0.715,2.763,0,4l30.861,53.437l30.826,53.432c0.715,1.238,2.035,2.001,3.465,2.001h123.396   c1.429,0,2.749-0.763,3.464-2l30.855-53.433l30.828-53.438C499.944,257.08,499.944,255.556,499.23,254.319z M461.474,307.756   l-29.7,51.432H312.998l-29.673-51.432l-29.707-51.438l59.378-102.795h118.779l29.697,51.365l29.675,51.43L461.474,307.756z"/></g><text x="12.937" y="510.469" fill="#000000" font-size="5px" font-weight="bold" font-family="'Helvetica Neue', Helvetica, Arial-Unicode, Arial, Sans-serif">Created by ibrandify</text><text x="12.937" y="515.469" fill="#000000" font-size="5px" font-weight="bold" font-family="'Helvetica Neue', Helvetica, Arial-Unicode, Arial, Sans-serif">from the Noun Project</text></svg>