<?xml version="1.0" encoding="UTF-8" standalone="no"?>
<svg
   xmlns:dc="http://purl.org/dc/elements/1.1/"
   xmlns:cc="http://creativecommons.org/ns#"
   xmlns:rdf="http://www.w3.org/1999/02/22-rdf-syntax-ns#"
   xmlns:svg="http://www.w3.org/2000/svg"
   xmlns="http://www.w3.org/2000/svg"
   xmlns:sodipodi="http://sodipodi.sourceforge.net/DTD/sodipodi-0.dtd"
   xmlns:inkscape="http://www.inkscape.org/namespaces/inkscape"
   inkscape:version="1.0 (4035a4fb49, 2020-05-01)"
   height="100"
   width="100"
   sodipodi:docname="isochrone2.svg"
   id="svg241"
   xml:space="preserve"
   enable-background="new 0 0 100 100"
   viewBox="0 0 100 100"
   y="0px"
   x="0px"
   version="1.1"><metadata
     id="metadata247"><rdf:RDF><cc:Work
         rdf:about=""><dc:format>image/svg+xml</dc:format><dc:type
           rdf:resource="http://purl.org/dc/dcmitype/StillImage" /><dc:title></dc:title></cc:Work></rdf:RDF></metadata><defs
     id="defs245" /><sodipodi:namedview
     inkscape:current-layer="svg241"
     inkscape:window-maximized="1"
     inkscape:window-y="-6"
     inkscape:window-x="-6"
     inkscape:cy="62.5"
     inkscape:cx="50"
     inkscape:zoom="4.784"
     showgrid="false"
     id="namedview243"
     inkscape:window-height="850"
     inkscape:window-width="1368"
     inkscape:pageshadow="2"
     inkscape:pageopacity="0"
     guidetolerance="10"
     gridtolerance="10"
     objecttolerance="10"
     borderopacity="1"
     bordercolor="#666666"
     pagecolor="#ffffff" /><path
     id="path235"
     d="m 87.413,49.639 c -2.72,0 -5.087,1.444 -6.426,3.595 L 61.427,48.25 c 0.038,-0.397 0.061,-0.799 0.061,-1.206 0,-3.473 -1.408,-6.618 -3.684,-8.894 l 3.092,-5.34 8.388,2.682 c 0.363,1.502 1.6,2.707 3.222,2.941 2.128,0.307 4.102,-1.169 4.41,-3.297 0.307,-2.128 -1.169,-4.102 -3.297,-4.41 -1.182,-0.171 -2.305,0.222 -3.133,0.958 l -7.543,-2.412 4.236,-7.314 c 0.234,0.057 0.456,0.139 0.699,0.174 4.147,0.599 7.994,-2.277 8.593,-6.424 0.599,-4.147 -2.277,-7.994 -6.425,-8.593 -4.147,-0.599 -7.994,2.277 -8.593,6.424 -0.36,2.493 0.552,4.862 2.224,6.498 L 54.544,35.81 c -1.697,-0.853 -3.606,-1.344 -5.634,-1.344 -2.898,0 -5.559,0.99 -7.686,2.637 l -2.376,-2.719 3.426,-9.256 c 1.516,-0.295 2.776,-1.477 3.083,-3.087 0.403,-2.112 -0.983,-4.151 -3.095,-4.553 -2.112,-0.403 -4.151,0.983 -4.553,3.095 -0.224,1.173 0.118,2.313 0.816,3.173 L 35.858,30.963 28.47,22.51 c 0.616,-0.987 1.04,-2.112 1.145,-3.351 0.354,-4.175 -2.744,-7.846 -6.919,-8.2 -4.175,-0.354 -7.846,2.744 -8.2,6.919 -0.354,4.175 2.744,7.846 6.919,8.2 1.487,0.126 2.901,-0.202 4.133,-0.844 l 3.748,4.288 -12.251,2.543 c -0.398,-0.42 -0.884,-0.768 -1.464,-0.982 -2.017,-0.745 -4.256,0.285 -5.001,2.302 -0.745,2.017 0.285,4.256 2.302,5.001 2.017,0.745 4.256,-0.285 5.001,-2.302 0.015,-0.04 0.018,-0.081 0.031,-0.122 l 14.399,-2.989 6.162,7.05 c -1.352,2.005 -2.141,4.421 -2.141,7.021 0,1.171 0.172,2.3 0.472,3.375 l -17.778,8.48 c -1.119,-1.823 -2.97,-3.181 -5.247,-3.543 -4.138,-0.658 -8.026,2.163 -8.684,6.301 -0.658,4.138 2.163,8.026 6.301,8.684 4.138,0.658 8.026,-2.163 8.684,-6.301 0.067,-0.423 0.075,-0.839 0.072,-1.253 l 18.313,-8.735 c 1.895,2.82 4.905,4.816 8.396,5.389 l 0.278,4.19 -9.156,3.731 c -0.425,-0.322 -0.918,-0.566 -1.471,-0.693 -2.095,-0.482 -4.185,0.826 -4.666,2.922 -0.482,2.095 0.826,4.185 2.922,4.666 2.095,0.482 4.185,-0.826 4.666,-2.922 0.02,-0.089 0.019,-0.177 0.034,-0.266 l 7.951,-3.24 0.702,10.573 c -2.168,0.915 -3.889,2.806 -4.457,5.275 -0.939,4.083 1.61,8.155 5.694,9.094 4.083,0.939 8.155,-1.61 9.094,-5.694 0.939,-4.083 -1.61,-8.155 -5.694,-9.094 -0.224,-0.051 -0.445,-0.054 -0.668,-0.084 L 50.867,59.456 c 4.287,-0.67 7.855,-3.495 9.553,-7.342 l 3.898,0.993 0.669,8.978 c -1.016,0.702 -1.685,1.873 -1.685,3.202 0,2.15 1.743,3.893 3.893,3.893 2.15,0 3.893,-1.743 3.893,-3.893 0,-1.506 -0.865,-2.798 -2.116,-3.445 l -0.574,-7.695 11.447,2.917 c -0.001,0.056 -0.016,0.107 -0.016,0.163 0,4.19 3.397,7.587 7.587,7.587 4.19,0 7.587,-3.397 7.587,-7.587 -0.003,-4.191 -3.4,-7.588 -7.59,-7.588 z"
     fill="#000000" /></svg>
