<?xml version="1.0" encoding="UTF-8" standalone="no"?>
<svg
   xmlns:dc="http://purl.org/dc/elements/1.1/"
   xmlns:cc="http://creativecommons.org/ns#"
   xmlns:rdf="http://www.w3.org/1999/02/22-rdf-syntax-ns#"
   xmlns:svg="http://www.w3.org/2000/svg"
   xmlns="http://www.w3.org/2000/svg"
   xmlns:sodipodi="http://sodipodi.sourceforge.net/DTD/sodipodi-0.dtd"
   xmlns:inkscape="http://www.inkscape.org/namespaces/inkscape"
   inkscape:version="1.0 (4035a4fb49, 2020-05-01)"
   height="100"
   width="100"
   sodipodi:docname="isochrone3.svg"
   id="svg138"
   xml:space="preserve"
   enable-background="new 0 0 100 100"
   viewBox="0 0 100 100"
   y="0px"
   x="0px"
   version="1.1"><metadata
     id="metadata144"><rdf:RDF><cc:Work
         rdf:about=""><dc:format>image/svg+xml</dc:format><dc:type
           rdf:resource="http://purl.org/dc/dcmitype/StillImage" /><dc:title></dc:title></cc:Work></rdf:RDF></metadata><defs
     id="defs142" /><sodipodi:namedview
     inkscape:current-layer="svg138"
     inkscape:window-maximized="1"
     inkscape:window-y="-6"
     inkscape:window-x="-6"
     inkscape:cy="69.980697"
     inkscape:cx="50"
     inkscape:zoom="4.784"
     showgrid="false"
     id="namedview140"
     inkscape:window-height="850"
     inkscape:window-width="1368"
     inkscape:pageshadow="2"
     inkscape:pageopacity="0"
     guidetolerance="10"
     gridtolerance="10"
     objecttolerance="10"
     borderopacity="1"
     bordercolor="#666666"
     pagecolor="#ffffff" /><g
     id="g132"><path
       id="path2"
       d="m 51.5,12.7 c -0.1,0 -0.2,0.1 -0.3,0.1 -0.2,0 -0.3,-0.1 -0.4,-0.3 L 50.1,11.3 50,11.2 49.8,11.3 c 0,0 0,0 0,0.1 l -1.3,2.2 c -0.1,0.1 -0.3,0.3 -0.4,0.3 -0.1,0 -0.2,0 -0.3,-0.1 -0.2,-0.1 -0.2,-0.2 -0.3,-0.4 0,-0.1 0,-0.2 0.1,-0.3 L 48,12.3 16.4,30.6 v 36.8 c 0.2,-0.1 0.4,-0.1 0.5,0 0.1,0.1 0.2,0.3 0.3,0.4 0,0.1 0,0.2 -0.1,0.3 l -0.7,1.2 v 0.2 l 0.2,0.1 c 0,0 0,0 0.1,0 h 2.5 c 0.3,0 0.5,0.2 0.5,0.5 0,0.3 -0.2,0.5 -0.5,0.5 h -0.9 l 31.2,18 v -1.1 c 0,-0.3 0.2,-0.5 0.5,-0.5 0.3,0 0.5,0.2 0.5,0.5 v 1.1 L 81.8,70.5 c -0.2,-0.1 -0.3,-0.2 -0.3,-0.4 0,-0.3 0.2,-0.5 0.5,-0.5 h 1.4 l 0.1,-0.1 v -0.2 c 0,0 0,0 0,0 L 82.3,67 c 0,-0.1 -0.1,-0.2 -0.1,-0.3 0,-0.2 0.1,-0.3 0.3,-0.4 0.2,-0.1 0.6,0 0.7,0.2 l 0.4,0.7 V 30.6 L 51.8,12.2 c 0,0.2 -0.1,0.4 -0.3,0.5 z m -3.7,26.8 h 2.5 c 0.3,0 0.5,0.2 0.5,0.5 0,0.3 -0.2,0.5 -0.5,0.5 h -2.5 c -0.3,0 -0.5,-0.2 -0.5,-0.5 0,-0.3 0.2,-0.5 0.5,-0.5 z M 45.2,17.4 46.5,15.2 C 46.6,15 47,14.9 47.2,15 c 0.2,0.1 0.3,0.2 0.3,0.4 0,0.1 0,0.2 -0.1,0.3 L 46,17.9 c -0.1,0.2 -0.3,0.3 -0.4,0.3 -0.1,0 -0.2,0 -0.3,-0.1 -0.1,-0.1 -0.2,-0.2 -0.3,-0.4 0.1,-0.1 0.1,-0.2 0.2,-0.3 z m -2.5,4.4 1.3,-2.2 c 0.1,-0.2 0.5,-0.3 0.7,-0.2 0.2,0.1 0.3,0.2 0.3,0.4 0,0.1 0,0.2 -0.1,0.3 l -1.3,2.2 c -0.1,0.2 -0.3,0.3 -0.4,0.3 -0.1,0 -0.2,0 -0.3,-0.1 -0.2,-0.1 -0.3,-0.2 -0.3,-0.4 0,-0.2 0,-0.3 0.1,-0.3 z m -2.6,4.3 1.3,-2.2 c 0.1,-0.2 0.5,-0.3 0.7,-0.2 0.2,0.1 0.2,0.3 0.3,0.4 0,0.1 0,0.2 -0.1,0.3 L 41,26.6 c -0.1,0.2 -0.3,0.3 -0.4,0.3 -0.1,0 -0.2,0 -0.3,-0.1 -0.2,-0.1 -0.3,-0.3 -0.3,-0.4 0.1,-0.1 0.1,-0.2 0.1,-0.3 z m -2.5,4.4 1.3,-2.2 c 0.1,-0.2 0.5,-0.3 0.7,-0.2 0.2,0.1 0.2,0.3 0.3,0.4 0,0.1 0,0.2 -0.1,0.3 L 38.5,31 c -0.1,0.1 -0.3,0.2 -0.4,0.2 -0.1,0 -0.2,0 -0.3,-0.1 -0.1,-0.1 -0.3,-0.3 -0.3,-0.4 0.1,-0.1 0.1,-0.1 0.1,-0.2 z m -2.5,4.3 1.3,-2.2 c 0.1,-0.2 0.4,-0.3 0.7,-0.2 0.2,0.1 0.3,0.3 0.3,0.4 0,0.1 0,0.2 -0.1,0.3 L 36,35.3 c -0.1,0.2 -0.3,0.3 -0.4,0.3 -0.1,0 -0.2,0 -0.3,-0.1 -0.2,-0.1 -0.2,-0.3 -0.3,-0.4 0,-0.1 0.1,-0.2 0.1,-0.3 z M 25.7,36 c 0.1,-0.2 0.5,-0.3 0.7,-0.2 l 2.2,1.3 c 0.2,0.1 0.2,0.3 0.3,0.4 0,0.1 0,0.2 -0.1,0.3 -0.1,0.1 -0.3,0.3 -0.4,0.3 -0.1,0 -0.2,0 -0.3,-0.1 l -2.2,-1.3 c -0.2,-0.1 -0.3,-0.3 -0.3,-0.4 0.1,-0.1 0.1,-0.2 0.1,-0.3 z m -4.3,-2.5 c 0.1,-0.2 0.5,-0.3 0.7,-0.2 l 2.2,1.3 c 0.2,0.1 0.2,0.3 0.3,0.4 0,0.1 0,0.2 -0.1,0.3 -0.1,0.2 -0.3,0.3 -0.4,0.3 -0.1,0 -0.2,0 -0.3,-0.1 l -2.2,-1.3 c -0.2,-0.1 -0.2,-0.3 -0.2,-0.4 -0.1,-0.2 -0.1,-0.3 0,-0.3 z m -4.5,-2.3 c 0,-0.1 0,-0.2 0.1,-0.3 0.1,-0.2 0.5,-0.3 0.7,-0.2 l 2.2,1.3 c 0.1,0.1 0.2,0.3 0.2,0.4 0,0.1 0,0.2 -0.1,0.3 0,0.2 -0.2,0.3 -0.4,0.3 -0.1,0 -0.2,0 -0.3,-0.1 L 17.1,31.6 C 17,31.5 16.9,31.4 16.9,31.2 Z m 2.7,32.5 -1.3,2.2 c -0.1,0.1 -0.3,0.2 -0.4,0.2 -0.1,0 -0.2,0 -0.3,-0.1 -0.2,-0.1 -0.3,-0.3 -0.3,-0.4 0,-0.1 0,-0.2 0.1,-0.3 l 1.3,-2.2 c 0.1,-0.2 0.4,-0.3 0.7,-0.2 0.2,0.1 0.2,0.3 0.2,0.4 0.1,0.2 0,0.3 0,0.4 z m 0.8,-1.9 c -0.1,0 -0.2,0 -0.3,-0.1 -0.1,-0.1 -0.2,-0.3 -0.3,-0.4 0,-0.1 0,-0.2 0.1,-0.3 l 1.3,-2.2 c 0.1,-0.2 0.5,-0.3 0.7,-0.2 0.2,0.1 0.3,0.3 0.3,0.4 0,0.1 0,0.2 -0.1,0.3 l -1.3,2.2 c 0,0.2 -0.2,0.3 -0.4,0.3 z m 3.8,8.7 h -2.5 c -0.3,0 -0.5,-0.2 -0.5,-0.5 0,-0.3 0.2,-0.5 0.5,-0.5 h 2.5 c 0.3,0 0.5,0.2 0.5,0.5 0,0.3 -0.3,0.5 -0.5,0.5 z M 24.6,55 23.3,57.2 c -0.1,0.2 -0.3,0.3 -0.4,0.3 -0.1,0 -0.2,0 -0.3,-0.1 -0.2,-0.1 -0.2,-0.3 -0.3,-0.4 0,-0.1 0,-0.2 0.1,-0.3 l 1.3,-2.2 c 0.1,-0.2 0.4,-0.3 0.7,-0.2 0.1,0.1 0.3,0.2 0.3,0.4 0,0.1 0,0.2 -0.1,0.3 z m 0.9,-2 c -0.1,0 -0.2,0 -0.3,-0.1 -0.2,-0.1 -0.3,-0.2 -0.3,-0.4 0,-0.1 0,-0.2 0.1,-0.3 L 26.3,50 c 0.1,-0.2 0.5,-0.3 0.7,-0.2 0.2,0.1 0.3,0.3 0.3,0.4 0,0.1 0,0.2 -0.1,0.3 l -1.3,2.2 C 25.8,52.9 25.6,53 25.5,53 Z m 3.7,17.5 h -2.5 c -0.3,0 -0.5,-0.2 -0.5,-0.5 0,-0.3 0.2,-0.5 0.5,-0.5 h 2.5 c 0.3,0 0.5,0.2 0.5,0.5 0,0.3 -0.2,0.5 -0.5,0.5 z m 0.5,-24.3 -1.3,2.2 c -0.1,0.2 -0.3,0.3 -0.4,0.3 -0.1,0 -0.2,0 -0.3,-0.1 -0.2,-0.1 -0.3,-0.3 -0.3,-0.4 0,-0.1 0,-0.2 0.1,-0.3 l 1.3,-2.2 c 0.1,-0.2 0.5,-0.3 0.7,-0.2 0.1,0.1 0.2,0.2 0.3,0.4 0,0.2 -0.1,0.3 -0.1,0.3 z m 0.8,-1.9 c -0.1,0 -0.2,0 -0.3,-0.1 -0.1,0 -0.2,-0.2 -0.2,-0.4 0,-0.1 0,-0.2 0.1,-0.3 l 1.3,-2.2 c 0.1,-0.2 0.5,-0.3 0.7,-0.2 0.2,0.1 0.2,0.3 0.3,0.4 0,0.1 0,0.2 -0.1,0.3 L 31,44 c -0.2,0.2 -0.3,0.3 -0.5,0.3 z m 3.7,26.2 h -2.5 c -0.3,0 -0.5,-0.2 -0.5,-0.5 0,-0.3 0.2,-0.5 0.5,-0.5 h 2.5 c 0.3,0 0.5,0.2 0.5,0.5 0,0.3 -0.2,0.5 -0.5,0.5 z m 0.9,-26.3 c -0.1,0 -0.2,0.1 -0.3,0.1 -0.2,0 -0.3,-0.1 -0.4,-0.3 L 33.1,41.8 C 33,41.7 33,41.6 33,41.5 c 0,-0.2 0.1,-0.3 0.3,-0.4 0.2,-0.1 0.5,0 0.7,0.2 l 1.3,2.2 c 0.1,0.1 0.1,0.2 0.1,0.2 0,0.3 -0.1,0.5 -0.3,0.5 z m 0.1,-3.7 h -2.5 c -0.1,0 -0.2,0 -0.2,-0.1 0,0 0,0 0,0 L 30.3,39.1 C 30.2,39 30,38.9 30,38.7 c 0,-0.1 0,-0.2 0.1,-0.3 0.1,-0.2 0.5,-0.3 0.7,-0.2 l 1.8,1 c 0,-0.1 0,-0.1 0,-0.1 l 1.3,-2.2 c 0.1,-0.2 0.5,-0.3 0.7,-0.2 0.2,0.1 0.3,0.3 0.3,0.4 0,0.1 0,0.2 -0.1,0.3 l -1.1,2 h 1.6 c 0.3,0 0.5,0.2 0.5,0.5 0,0.3 -0.3,0.6 -0.6,0.6 z m 0.4,5.5 c 0,-0.2 0.1,-0.3 0.3,-0.4 0.2,-0.1 0.6,0 0.7,0.2 l 1.3,2.2 c 0,0.1 0.1,0.2 0.1,0.2 0,0.2 -0.1,0.3 -0.3,0.4 -0.1,0 -0.2,0.1 -0.3,0.1 -0.2,0 -0.4,-0.1 -0.4,-0.3 l -1.3,-2.2 c 0,0 -0.1,-0.1 -0.1,-0.2 z m 3.7,24.5 h -2.5 c -0.3,0 -0.5,-0.2 -0.5,-0.5 0,-0.3 0.2,-0.5 0.5,-0.5 h 2.5 c 0.3,0 0.5,0.2 0.5,0.5 0,0.3 -0.3,0.5 -0.5,0.5 z M 40.2,53 c -0.1,0 -0.2,0 -0.3,0 -0.2,0 -0.3,-0.1 -0.4,-0.3 l -1.3,-2.2 c 0,-0.1 -0.1,-0.2 -0.1,-0.3 0,-0.2 0.1,-0.3 0.3,-0.4 0.2,-0.1 0.5,0 0.7,0.2 l 1.3,2.2 c 0,0.1 0.1,0.2 0.1,0.2 -0.1,0.3 -0.2,0.5 -0.3,0.6 z m 0.1,-12.5 h -2.5 c -0.3,0 -0.5,-0.2 -0.5,-0.5 0,-0.3 0.2,-0.5 0.5,-0.5 h 2.5 c 0.3,0 0.5,0.2 0.5,0.5 0,0.3 -0.3,0.5 -0.5,0.5 z m 0.4,14.2 c 0,-0.2 0.1,-0.3 0.3,-0.4 0.2,-0.1 0.6,-0.1 0.7,0.2 l 1.3,2.2 c 0,0.1 0.1,0.2 0.1,0.2 0,0.2 -0.1,0.3 -0.3,0.4 -0.1,0 -0.2,0.1 -0.2,0.1 -0.2,0 -0.4,-0.1 -0.4,-0.3 L 40.8,55 c -0.1,-0.1 -0.1,-0.2 -0.1,-0.3 z m 3.6,15.8 h -2.5 c -0.3,0 -0.5,-0.2 -0.5,-0.5 0,-0.3 0.2,-0.5 0.5,-0.5 h 2.5 c 0.3,0 0.5,0.2 0.5,0.5 0,0.3 -0.2,0.5 -0.5,0.5 z m 0.9,-8.8 c -0.1,0 -0.2,0.1 -0.3,0.1 -0.2,0 -0.3,-0.1 -0.4,-0.3 l -1.3,-2.2 c 0,-0.1 -0.1,-0.2 -0.1,-0.3 0,-0.2 0.1,-0.3 0.3,-0.4 0.2,-0.1 0.5,0 0.7,0.2 l 1.3,2.2 c 0,0.1 0.1,0.2 0.1,0.2 0,0.2 -0.1,0.4 -0.3,0.5 z m 0.1,-21.2 h -2.5 c -0.3,0 -0.5,-0.2 -0.5,-0.5 0,-0.3 0.2,-0.5 0.5,-0.5 h 2.5 c 0.3,0 0.5,0.2 0.5,0.5 0,0.3 -0.2,0.5 -0.5,0.5 z m 0.4,22.9 c 0,-0.2 0.1,-0.3 0.3,-0.4 0.2,-0.1 0.5,0 0.7,0.2 l 1.3,2.2 c 0,0.1 0.1,0.2 0.1,0.2 0,0.2 -0.1,0.4 -0.3,0.5 -0.1,0 -0.2,0.1 -0.3,0.1 -0.2,0 -0.3,-0.1 -0.4,-0.3 l -1.3,-2.2 c -0.1,-0.1 -0.1,-0.2 -0.1,-0.3 z m 3.6,7.1 h -2.5 c -0.3,0 -0.5,-0.2 -0.5,-0.5 0,-0.3 0.2,-0.5 0.5,-0.5 h 2.3 l -0.8,-1.4 c 0,-0.1 -0.1,-0.2 -0.1,-0.3 0,-0.2 0.1,-0.3 0.3,-0.4 0.2,-0.1 0.5,0 0.7,0.2 l 1.3,2.2 c 0.1,0.2 0.1,0.5 -0.2,0.7 -0.1,0 -0.2,0.1 -0.3,0.1 -0.1,0 -0.2,-0.1 -0.3,-0.1 -0.1,-0.1 -0.2,0 -0.4,0 z m 1.2,14.4 c 0,0.3 -0.2,0.5 -0.5,0.5 -0.3,0 -0.5,-0.2 -0.5,-0.5 v -2.5 c 0,-0.3 0.2,-0.5 0.5,-0.5 0.3,0 0.5,0.2 0.5,0.5 z m 0,-5 c 0,0.3 -0.2,0.5 -0.5,0.5 -0.3,0 -0.5,-0.2 -0.5,-0.5 v -2.5 c 0,-0.3 0.2,-0.5 0.5,-0.5 0.3,0 0.5,0.2 0.5,0.5 z m 0,-5 c 0,0.3 -0.2,0.5 -0.5,0.5 -0.3,0 -0.5,-0.2 -0.5,-0.5 v -2.5 c 0,-0.3 0.2,-0.5 0.5,-0.5 0.3,0 0.5,0.2 0.5,0.5 z m 3.9,-4.4 h -2.5 c -0.3,0 -0.5,-0.2 -0.5,-0.5 0,-0.3 0.2,-0.5 0.5,-0.5 h 2.5 c 0.3,0 0.5,0.2 0.5,0.5 0,0.3 -0.2,0.5 -0.5,0.5 z m 0.7,-8.4 -1.3,2.2 c -0.1,0.1 -0.3,0.3 -0.4,0.3 -0.1,0 -0.2,0 -0.3,-0.1 C 53,64.3 53,64.2 53,64 c 0,-0.1 0,-0.2 0.1,-0.3 l 1.3,-2.2 c 0.1,-0.2 0.4,-0.3 0.7,-0.2 0.1,0.1 0.3,0.3 0.3,0.4 -0.2,0.2 -0.2,0.3 -0.3,0.4 z M 52.8,40.5 c -0.3,0 -0.5,-0.2 -0.5,-0.5 0,-0.3 0.2,-0.5 0.5,-0.5 h 2.5 c 0.3,0 0.5,0.2 0.5,0.5 0,0.3 -0.2,0.5 -0.5,0.5 z m 6.6,30 h -2.5 c -0.3,0 -0.5,-0.2 -0.5,-0.5 0,-0.3 0.2,-0.5 0.5,-0.5 h 2.5 c 0.3,0 0.5,0.2 0.5,0.5 0,0.3 -0.2,0.5 -0.5,0.5 z m 0.8,-17.2 -1.3,2.2 c -0.1,0.2 -0.3,0.3 -0.4,0.3 -0.1,0 -0.2,0 -0.3,-0.1 -0.2,-0.1 -0.3,-0.3 -0.3,-0.4 0,-0.1 0,-0.2 0.1,-0.3 l 1.3,-2.2 c 0.1,-0.2 0.5,-0.3 0.7,-0.2 0.1,0.1 0.2,0.3 0.3,0.4 0,0.2 -0.1,0.3 -0.1,0.3 z M 57.9,40.5 c -0.3,0 -0.5,-0.2 -0.5,-0.5 0,-0.3 0.2,-0.5 0.5,-0.5 h 2.5 c 0.3,0 0.5,0.2 0.5,0.5 0,0.3 -0.2,0.5 -0.5,0.5 z m 6.6,30 H 62 c -0.3,0 -0.5,-0.2 -0.5,-0.5 0,-0.3 0.2,-0.5 0.5,-0.5 h 2.5 c 0.3,0 0.5,0.2 0.5,0.5 0,0.3 -0.3,0.5 -0.5,0.5 z M 65.2,44.6 64,46.8 c -0.1,0.2 -0.3,0.3 -0.4,0.3 -0.1,0 -0.2,0 -0.3,-0.1 -0.1,-0.1 -0.2,-0.2 -0.3,-0.4 0,-0.1 0,-0.2 0.1,-0.3 l 1.3,-2.2 c 0.1,-0.2 0.5,-0.3 0.7,-0.2 0.2,0.1 0.3,0.3 0.3,0.4 -0.1,0.2 -0.1,0.3 -0.2,0.3 z m -2.3,-4.1 c -0.3,0 -0.5,-0.2 -0.5,-0.5 0,-0.3 0.2,-0.5 0.5,-0.5 h 2.5 c 0.3,0 0.5,0.2 0.5,0.5 0,0.3 -0.2,0.5 -0.5,0.5 z m 6.6,30 H 67 c -0.3,0 -0.5,-0.2 -0.5,-0.5 0,-0.3 0.2,-0.5 0.5,-0.5 h 2.5 c 0.3,0 0.5,0.2 0.5,0.5 0,0.3 -0.2,0.5 -0.5,0.5 z M 80.1,32 82.3,30.7 c 0.2,-0.1 0.6,0 0.7,0.2 0,0.1 0.1,0.2 0.1,0.2 0,0.2 -0.1,0.4 -0.3,0.5 l -2.2,1.3 C 80.5,32.9 80.4,33 80.3,33 80.1,33 80,32.9 79.9,32.7 79.8,32.6 79.8,32.5 79.8,32.4 79.9,32.3 80,32.1 80.1,32 Z M 80,62 c 0.2,-0.1 0.5,-0.1 0.7,0.2 l 1.3,2.2 c 0,0.1 0.1,0.2 0.1,0.3 0,0.2 -0.1,0.3 -0.3,0.4 -0.1,0 -0.2,0.1 -0.3,0.1 -0.2,0 -0.3,-0.1 -0.4,-0.3 l -1.3,-2.2 c 0,-0.1 -0.1,-0.2 -0.1,-0.3 0,-0.2 0.1,-0.4 0.3,-0.4 z m 0.1,8 c 0,0.3 -0.2,0.5 -0.5,0.5 H 77 c -0.3,0 -0.5,-0.2 -0.5,-0.5 0,-0.3 0.2,-0.5 0.5,-0.5 h 2.5 c 0.3,0 0.6,0.2 0.6,0.5 z m -0.6,-9.8 c 0,0.2 -0.1,0.4 -0.3,0.4 -0.1,0 -0.2,0.1 -0.2,0.1 -0.2,0 -0.4,-0.1 -0.4,-0.3 l -1.3,-2.2 c 0,-0.1 -0.1,-0.2 -0.1,-0.3 0,-0.2 0.1,-0.3 0.3,-0.4 0.2,-0.1 0.5,0 0.7,0.2 l 1.3,2.2 c -0.1,0.1 0,0.2 0,0.3 z M 75.8,34.5 78,33.2 c 0.2,-0.1 0.5,-0.1 0.7,0.2 0,0.1 0.1,0.2 0.1,0.2 0,0.2 -0.1,0.4 -0.3,0.4 l -2.2,1.3 c -0.1,0 -0.2,0.1 -0.3,0.1 -0.2,0 -0.3,-0.1 -0.4,-0.3 0,-0.1 -0.1,-0.2 -0.1,-0.3 0,0 0.1,-0.2 0.3,-0.3 z m -0.9,18.7 c 0.2,-0.1 0.5,0 0.7,0.2 l 1.3,2.2 c 0,0.1 0.1,0.2 0.1,0.2 0,0.2 -0.1,0.3 -0.3,0.4 -0.1,0 -0.2,0.1 -0.3,0.1 -0.2,0 -0.3,-0.1 -0.4,-0.3 l -1.3,-2.2 c 0,-0.1 -0.1,-0.2 -0.1,-0.3 0.1,0 0.2,-0.2 0.3,-0.3 z M 75,70 c 0,0.3 -0.2,0.5 -0.5,0.5 H 72 c -0.3,0 -0.5,-0.2 -0.5,-0.5 0,-0.3 0.2,-0.5 0.5,-0.5 h 2.5 c 0.3,0 0.5,0.2 0.5,0.5 z M 74.4,51.5 c 0,0.2 -0.1,0.3 -0.3,0.4 0,0.1 -0.1,0.1 -0.2,0.1 -0.2,0 -0.4,-0.1 -0.4,-0.3 l -1.3,-2.2 c 0,-0.1 -0.1,-0.2 -0.1,-0.3 0,-0.2 0.1,-0.3 0.3,-0.4 0.2,-0.1 0.5,0 0.7,0.2 l 1.3,2.2 c 0,0.1 0,0.2 0,0.3 z m -3,-14.4 2.2,-1.3 c 0.2,-0.1 0.5,0 0.7,0.2 0,0.1 0.1,0.2 0.1,0.2 0,0.2 -0.1,0.4 -0.3,0.5 L 71.9,38 c -0.1,0 -0.2,0.1 -0.3,0.1 -0.2,0 -0.3,-0.1 -0.4,-0.3 0,-0.1 -0.1,-0.2 -0.1,-0.3 0.1,-0.2 0.2,-0.3 0.3,-0.4 z m -0.8,7.6 1.3,2.2 c 0,0.1 0.1,0.2 0.1,0.2 0,0.2 -0.1,0.4 -0.3,0.5 -0.1,0 -0.2,0.1 -0.3,0.1 -0.2,0 -0.3,-0.1 -0.4,-0.3 l -1.3,-2.2 c 0,-0.1 -0.1,-0.2 -0.1,-0.3 0,-0.2 0.1,-0.3 0.3,-0.4 0.2,-0.1 0.5,0 0.7,0.2 z m -3.6,-5 c 0,-0.1 0,-0.1 0,0 0,-0.1 0,-0.1 0,0 l 2.3,-1.3 c 0.2,-0.1 0.6,-0.1 0.7,0.2 0,0.1 0.1,0.1 0.1,0.2 0,0.2 -0.1,0.3 -0.3,0.4 l -1.8,1 c 0,0 0.1,0.1 0.1,0.1 l 1.3,2.2 c 0,0.1 0.1,0.2 0.1,0.3 0,0.2 -0.1,0.3 -0.3,0.4 -0.1,0 -0.2,0.1 -0.3,0.1 -0.2,0 -0.3,-0.1 -0.4,-0.2 l -1.2,-2 -0.8,1.4 c -0.1,0.2 -0.3,0.3 -0.4,0.3 -0.1,0 -0.2,0 -0.3,-0.1 -0.2,-0.1 -0.3,-0.2 -0.3,-0.4 0,-0.1 0,-0.2 0.1,-0.3 L 67,39.7 c -0.1,0.1 -0.1,0.1 0,0 -0.1,0 -0.1,0 0,0 z m -2.1,-3.9 c 0.2,-0.1 0.5,-0.1 0.7,0.2 l 1.3,2.2 c 0,0.1 0.1,0.2 0.1,0.2 0,0.2 -0.1,0.3 -0.3,0.5 -0.1,0 -0.2,0.1 -0.3,0.1 C 66.2,39 66,38.9 66,38.7 l -1.3,-2.2 c 0,-0.1 -0.1,-0.2 -0.1,-0.3 0,-0.2 0.1,-0.3 0.3,-0.4 z m -2.6,-4.4 c 0.2,-0.1 0.5,0 0.7,0.2 l 1.3,2.2 c 0,0.1 0.1,0.2 0.1,0.2 0,0.2 -0.1,0.4 -0.3,0.5 -0.1,0 -0.2,0.1 -0.3,0.1 -0.2,0 -0.3,-0.1 -0.4,-0.3 L 62.1,32.1 C 62,32 62,31.9 62,31.8 c 0.1,-0.1 0.2,-0.3 0.3,-0.4 z m 0.2,16.9 c 0.2,0.1 0.3,0.3 0.3,0.4 0,0.1 0,0.2 -0.1,0.3 l -1.3,2.2 c -0.1,0.2 -0.3,0.3 -0.4,0.3 -0.1,0 -0.2,0 -0.2,-0.1 -0.2,-0.1 -0.3,-0.3 -0.3,-0.4 0,-0.1 0,-0.2 0.1,-0.3 l 1.3,-2.2 c 0.1,-0.2 0.4,-0.3 0.6,-0.2 z M 59.8,27.1 C 60,27 60.4,27 60.5,27.3 l 1.3,2.2 c 0,0.1 0.1,0.1 0.1,0.2 0,0.2 -0.1,0.4 -0.3,0.4 -0.1,0 -0.2,0.1 -0.3,0.1 -0.2,0 -0.3,-0.1 -0.4,-0.3 l -1.3,-2.2 c 0,-0.1 -0.1,-0.2 -0.1,-0.3 0.1,-0.1 0.2,-0.3 0.3,-0.3 z m -2.5,-4.4 c 0.2,-0.1 0.5,0 0.7,0.2 l 1.3,2.2 c 0,0.1 0.1,0.1 0.1,0.2 0,0.2 -0.1,0.4 -0.3,0.4 -0.1,0.1 -0.2,0.1 -0.3,0.1 -0.2,0 -0.3,-0.1 -0.4,-0.3 L 57.1,23.3 C 57,23.2 57,23.1 57,23 c 0.1,-0.1 0.1,-0.2 0.3,-0.3 z M 57.5,57 c 0.2,0.1 0.2,0.3 0.3,0.4 0,0.1 0,0.2 -0.1,0.3 l -1.3,2.2 c -0.1,0.2 -0.3,0.3 -0.4,0.3 -0.1,0 -0.2,0 -0.3,-0.1 -0.2,-0.1 -0.3,-0.3 -0.3,-0.4 0,-0.1 0,-0.2 0.1,-0.3 l 1.3,-2.2 C 56.9,57 57.3,56.9 57.5,57 Z M 54.8,18.3 c 0.2,-0.1 0.5,0 0.7,0.2 l 1.3,2.2 c 0,0.1 0.1,0.2 0.1,0.3 0,0.2 -0.1,0.3 -0.3,0.4 -0.1,0 -0.2,0.1 -0.2,0.1 -0.2,0 -0.3,-0.1 -0.4,-0.3 L 54.6,19 c 0,-0.1 -0.1,-0.2 -0.1,-0.3 0,-0.1 0.1,-0.3 0.3,-0.4 z M 52.3,14 c 0.2,-0.1 0.5,0 0.7,0.2 l 1.3,2.2 c 0,0.1 0.1,0.1 0.1,0.2 0,0.2 -0.1,0.4 -0.3,0.5 -0.1,0 -0.2,0.1 -0.3,0.1 -0.2,0 -0.4,-0.1 -0.4,-0.3 l -1.3,-2.2 c 0,-0.1 -0.1,-0.2 -0.1,-0.3 0,-0.2 0.1,-0.3 0.3,-0.4 z m 0.1,51.7 c 0.2,0.1 0.3,0.3 0.3,0.4 0,0.1 0,0.2 -0.1,0.3 l -1.3,2.2 c -0.1,0.2 -0.3,0.3 -0.4,0.3 -0.1,0 -0.2,0 -0.3,-0.1 -0.1,-0.1 -0.2,-0.3 -0.3,-0.4 0,-0.1 0,-0.2 0.1,-0.3 l 1.3,-2.2 c 0.2,-0.2 0.5,-0.3 0.7,-0.2 z"
       fill="none" /><path
       id="path4"
       d="M 85.1,29.2 50.5,9.2 C 50.2,9 49.8,9 49.5,9.2 l -34.6,20 c -0.3,0.2 -0.5,0.5 -0.5,0.9 v 40 c 0,0.4 0.2,0.7 0.5,0.9 l 34.6,20 c 0.2,0.1 0.3,0.1 0.5,0.1 0.2,0 0.3,0 0.5,-0.1 L 85.1,71 c 0.3,-0.2 0.5,-0.5 0.5,-0.9 V 30 c 0,-0.3 -0.2,-0.7 -0.5,-0.8 z m -1.5,38 -0.4,-0.7 c -0.1,-0.2 -0.5,-0.3 -0.7,-0.2 -0.1,0.1 -0.2,0.3 -0.3,0.4 0,0.1 0,0.2 0.1,0.3 l 1.3,2.2 c 0,0 0,0 0,0 v 0.2 l -0.1,0.1 h -1.4 c -0.3,0 -0.5,0.2 -0.5,0.5 0,0.2 0.1,0.3 0.3,0.4 L 50.5,88.5 v -1.1 c 0,-0.3 -0.2,-0.5 -0.5,-0.5 -0.3,0 -0.5,0.2 -0.5,0.5 v 1.1 l -31.2,-18 h 0.9 c 0.3,0 0.5,-0.2 0.5,-0.5 0,-0.3 -0.2,-0.5 -0.5,-0.5 h -2.5 c 0,0 0,0 -0.1,0 L 16.4,69.4 V 69.2 L 17.1,68 c 0,-0.1 0.1,-0.2 0.1,-0.3 0,-0.2 -0.1,-0.3 -0.3,-0.4 -0.2,-0.1 -0.4,-0.1 -0.5,0 V 30.6 L 48.1,12.3 47.7,13 c -0.1,0.1 -0.1,0.2 -0.1,0.3 0,0.2 0.1,0.3 0.3,0.4 0.1,0 0.2,0.1 0.3,0.1 0.2,0 0.3,-0.1 0.4,-0.3 l 1.3,-2.2 c 0,0 0,0 0,-0.1 l 0.2,-0.1 0.1,0.1 0.7,1.2 c 0.1,0.1 0.3,0.3 0.4,0.3 0.1,0 0.2,0 0.3,-0.1 0.2,-0.1 0.2,-0.3 0.2,-0.4 l 31.8,18.4 z" /><path
       id="path6"
       d="m 45.4,18.1 c 0.1,0 0.2,0.1 0.3,0.1 0.2,0 0.4,-0.1 0.4,-0.3 l 1.3,-2.2 c 0,-0.1 0.1,-0.2 0.1,-0.3 0,-0.2 -0.1,-0.3 -0.3,-0.4 -0.2,-0.1 -0.6,0 -0.7,0.2 l -1.3,2.2 c 0,0.1 -0.1,0.2 -0.1,0.3 0,0.1 0.1,0.3 0.3,0.4 z" /><path
       id="path8"
       d="m 42.8,22.4 c 0.1,0.1 0.2,0.1 0.3,0.1 0.2,0 0.3,-0.1 0.4,-0.3 L 44.8,20 c 0,-0.1 0.1,-0.2 0.1,-0.3 0,-0.2 -0.1,-0.3 -0.3,-0.4 -0.2,-0.1 -0.5,0 -0.7,0.2 l -1.3,2.2 c 0,0.1 -0.1,0.2 -0.1,0.3 0.1,0.2 0.2,0.4 0.3,0.4 z" /><path
       id="path10"
       d="m 40.3,26.8 c 0.1,0 0.2,0.1 0.3,0.1 0.2,0 0.3,-0.1 0.4,-0.3 l 1.3,-2.2 c 0,-0.1 0.1,-0.2 0.1,-0.3 0,-0.2 -0.1,-0.3 -0.3,-0.4 -0.2,-0.1 -0.5,-0.1 -0.7,0.2 l -1.3,2.2 c 0,0.1 -0.1,0.2 -0.1,0.3 0.1,0.2 0.2,0.3 0.3,0.4 z" /><path
       id="path12"
       d="m 35.5,35.6 c 0.2,0 0.3,-0.1 0.4,-0.3 l 1.3,-2.2 c 0,-0.1 0.1,-0.2 0.1,-0.3 0,-0.2 -0.1,-0.3 -0.3,-0.4 -0.2,-0.1 -0.5,0 -0.7,0.2 L 35,34.8 c 0,0.1 -0.1,0.2 -0.1,0.3 0,0.2 0.1,0.3 0.3,0.4 0.2,0.1 0.3,0.1 0.3,0.1 z" /><path
       id="path14"
       d="m 29.5,45.6 c -0.2,-0.1 -0.5,0 -0.7,0.2 L 27.5,48 c 0,0.1 -0.1,0.2 -0.1,0.3 0,0.2 0.1,0.3 0.3,0.4 0.1,0 0.2,0.1 0.3,0.1 0.2,0 0.3,-0.1 0.4,-0.3 l 1.3,-2.2 c 0,-0.1 0.1,-0.2 0.1,-0.3 -0.1,-0.2 -0.2,-0.4 -0.3,-0.4 z" /><path
       id="path16"
       d="m 32.3,41.6 c 0,-0.2 -0.1,-0.3 -0.3,-0.4 -0.2,-0.1 -0.5,0 -0.7,0.2 L 30,43.6 c 0,0.1 -0.1,0.2 -0.1,0.3 0,0.2 0.1,0.3 0.3,0.4 0.1,0 0.2,0.1 0.3,0.1 0.2,0 0.3,-0.1 0.4,-0.3 l 1.3,-2.2 c 0,-0.1 0.1,-0.2 0.1,-0.3 z" /><path
       id="path18"
       d="m 22.2,59.1 c 0,-0.2 -0.1,-0.3 -0.3,-0.4 -0.2,-0.1 -0.5,0 -0.7,0.2 L 20,61 c 0,0.1 -0.1,0.2 -0.1,0.3 0,0.2 0.1,0.3 0.3,0.4 0.1,0 0.2,0.1 0.3,0.1 0.2,0 0.4,-0.1 0.4,-0.3 l 1.3,-2.2 c 0,-0.1 0,-0.1 0,-0.2 z" /><path
       id="path20"
       d="m 18.7,63.2 -1.3,2.2 c 0,0.1 -0.1,0.2 -0.1,0.3 0,0.2 0.1,0.3 0.3,0.4 0.1,0 0.2,0.1 0.3,0.1 0.2,0 0.3,-0.1 0.4,-0.2 l 1.3,-2.2 c 0,-0.1 0.1,-0.2 0.1,-0.3 0,-0.2 -0.1,-0.3 -0.2,-0.4 -0.3,-0.2 -0.6,-0.1 -0.8,0.1 z" /><path
       id="path22"
       d="m 37.8,31.2 c 0.1,0 0.2,0.1 0.3,0.1 0.2,0 0.3,-0.1 0.4,-0.2 l 1.3,-2.2 c 0,-0.1 0.1,-0.2 0.1,-0.3 0,-0.2 -0.1,-0.3 -0.3,-0.4 -0.2,-0.1 -0.5,0 -0.7,0.2 l -1.3,2.2 c 0,0.1 -0.1,0.2 -0.1,0.3 0.1,0 0.2,0.2 0.3,0.3 z" /><path
       id="path24"
       d="M 24.5,54.3 C 24.3,54.2 24,54.2 23.8,54.5 l -1.3,2.2 c 0,0.1 -0.1,0.2 -0.1,0.3 0,0.2 0.1,0.3 0.3,0.4 0.1,0 0.2,0.1 0.3,0.1 0.2,0 0.3,-0.1 0.4,-0.3 L 24.7,55 c 0,-0.1 0.1,-0.2 0.1,-0.3 -0.1,-0.2 -0.2,-0.3 -0.3,-0.4 z" /><path
       id="path26"
       d="m 27.2,50.3 c 0,-0.2 -0.1,-0.3 -0.3,-0.4 -0.2,-0.1 -0.5,0 -0.7,0.2 L 25,52.3 c 0,0.1 -0.1,0.2 -0.1,0.3 0,0.2 0.1,0.3 0.3,0.4 0.1,0 0.2,0.1 0.3,0.1 0.2,0 0.3,-0.1 0.4,-0.3 l 1.3,-2.2 c 0,-0.1 0,-0.2 0,-0.3 z" /><path
       id="path28"
       d="m 58.4,25.6 c 0.1,0.1 0.3,0.3 0.4,0.3 0.1,0 0.2,0 0.3,-0.1 0.2,-0.1 0.3,-0.3 0.3,-0.4 0,-0.1 0,-0.2 -0.1,-0.2 L 58,22.9 c -0.1,-0.2 -0.5,-0.3 -0.7,-0.2 -0.2,0.1 -0.2,0.2 -0.3,0.4 0,0.1 0,0.2 0.1,0.3 z" /><path
       id="path30"
       d="m 69.6,44.9 c 0,0.1 0,0.2 0.1,0.3 l 1.3,2.2 c 0.1,0.1 0.3,0.3 0.4,0.3 0.1,0 0.2,0 0.3,-0.1 0.2,-0.1 0.3,-0.3 0.3,-0.5 0,-0.1 0,-0.2 -0.1,-0.2 l -1.3,-2.2 c -0.1,-0.2 -0.5,-0.3 -0.7,-0.2 -0.2,0.1 -0.3,0.3 -0.3,0.4 z" /><path
       id="path32"
       d="m 72.4,48.9 c -0.2,0.1 -0.3,0.3 -0.3,0.4 0,0.1 0,0.2 0.1,0.3 l 1.3,2.2 c 0.1,0.2 0.3,0.3 0.4,0.3 0.1,0 0.2,0 0.3,-0.1 0.1,-0.1 0.3,-0.3 0.3,-0.4 0,-0.1 0,-0.2 -0.1,-0.3 L 73.1,49.1 C 73,48.8 72.6,48.7 72.4,48.9 Z" /><path
       id="path34"
       d="m 65.9,38.6 c 0.1,0.2 0.3,0.3 0.4,0.3 0.1,0 0.2,0 0.3,-0.1 0.1,-0.1 0.3,-0.3 0.3,-0.5 0,-0.1 0,-0.2 -0.1,-0.2 L 65.5,36 c -0.1,-0.2 -0.5,-0.3 -0.7,-0.2 -0.2,0.1 -0.3,0.3 -0.3,0.4 0,0.1 0,0.2 0.1,0.3 z" /><path
       id="path36"
       d="m 63.4,34.3 c 0.1,0.2 0.3,0.3 0.4,0.3 0.1,0 0.2,0 0.3,-0.1 0.2,-0.1 0.3,-0.3 0.3,-0.5 0,-0.1 0,-0.2 -0.1,-0.2 L 63,31.6 c -0.1,-0.2 -0.5,-0.3 -0.7,-0.2 -0.2,0.1 -0.3,0.3 -0.3,0.4 0,0.1 0,0.2 0.1,0.3 z" /><path
       id="path38"
       d="m 53.3,16.8 c 0.1,0.1 0.3,0.3 0.4,0.3 0.1,0 0.2,0 0.3,-0.1 0.1,-0.1 0.3,-0.3 0.3,-0.5 0,-0.1 0,-0.2 -0.1,-0.2 L 53,14.2 C 52.9,14 52.5,13.9 52.3,14 52.2,14.1 52,14.3 52,14.4 c 0,0.1 0,0.2 0.1,0.3 z" /><path
       id="path40"
       d="m 60.9,29.9 c 0.1,0.1 0.3,0.3 0.4,0.3 0.1,0 0.2,0 0.3,-0.1 0.2,-0.1 0.3,-0.3 0.3,-0.4 0,-0.1 0,-0.2 -0.1,-0.2 L 60.5,27.3 C 60.4,27.1 60,27 59.8,27.1 c -0.1,0.1 -0.3,0.2 -0.3,0.4 0,0.1 0,0.2 0.1,0.3 z" /><path
       id="path42"
       d="m 76,56.1 c 0.1,0.2 0.3,0.3 0.4,0.3 0.1,0 0.2,0 0.3,-0.1 0.2,-0.1 0.3,-0.3 0.3,-0.4 0,-0.1 0,-0.2 -0.1,-0.2 l -1.3,-2.2 c -0.1,-0.2 -0.4,-0.3 -0.7,-0.2 -0.1,0.1 -0.3,0.3 -0.3,0.4 0,0.1 0,0.2 0.1,0.3 z" /><path
       id="path44"
       d="m 55.9,21.2 c 0.1,0.2 0.3,0.3 0.4,0.3 0.1,0 0.2,0 0.2,-0.1 0.2,-0.1 0.3,-0.2 0.3,-0.4 0,-0.1 0,-0.2 -0.1,-0.3 l -1.3,-2.2 c -0.1,-0.2 -0.5,-0.3 -0.7,-0.2 -0.2,0.1 -0.2,0.3 -0.3,0.4 0,0.1 0,0.2 0.1,0.3 z" /><path
       id="path46"
       d="m 77.5,57.6 c -0.2,0.1 -0.3,0.2 -0.3,0.4 0,0.1 0,0.2 0.1,0.3 l 1.3,2.2 c 0.1,0.1 0.3,0.3 0.4,0.3 0.1,0 0.2,0 0.2,-0.1 0.2,-0.1 0.3,-0.3 0.3,-0.4 0,-0.1 0,-0.2 -0.1,-0.2 L 78.1,57.9 C 78,57.5 77.7,57.5 77.5,57.6 Z" /><path
       id="path48"
       d="m 81,64.8 c 0.1,0.2 0.3,0.3 0.4,0.3 0.1,0 0.2,0 0.3,-0.1 0.2,-0.1 0.3,-0.2 0.3,-0.4 0,-0.1 0,-0.2 -0.1,-0.3 l -1.3,-2.2 c -0.1,-0.2 -0.4,-0.3 -0.7,-0.2 -0.2,0.1 -0.2,0.3 -0.2,0.4 0,0.1 0,0.2 0.1,0.3 z" /><path
       id="path50"
       d="m 34.2,69.5 h -2.5 c -0.3,0 -0.5,0.2 -0.5,0.5 0,0.3 0.2,0.5 0.5,0.5 h 2.5 c 0.3,0 0.5,-0.2 0.5,-0.5 0,-0.3 -0.2,-0.5 -0.5,-0.5 z" /><path
       id="path52"
       d="m 39.3,69.5 h -2.5 c -0.3,0 -0.5,0.2 -0.5,0.5 0,0.3 0.2,0.5 0.5,0.5 h 2.5 c 0.3,0 0.5,-0.2 0.5,-0.5 0,-0.3 -0.3,-0.5 -0.5,-0.5 z" /><path
       id="path54"
       d="m 50,70.5 c 0.1,0 0.2,0 0.3,-0.1 0.2,-0.1 0.3,-0.4 0.2,-0.7 l -1.3,-2.2 c -0.1,-0.2 -0.5,-0.3 -0.7,-0.2 -0.2,0.1 -0.3,0.3 -0.3,0.4 0,0.1 0,0.2 0.1,0.3 l 0.8,1.4 h -2.3 c -0.3,0 -0.5,0.2 -0.5,0.5 0,0.3 0.2,0.5 0.5,0.5 h 2.5 c 0.1,0 0.2,-0.1 0.3,-0.1 0.2,0.1 0.3,0.2 0.4,0.2 z" /><path
       id="path56"
       d="m 44.3,69.5 h -2.5 c -0.3,0 -0.5,0.2 -0.5,0.5 0,0.3 0.2,0.5 0.5,0.5 h 2.5 c 0.3,0 0.5,-0.2 0.5,-0.5 0,-0.3 -0.2,-0.5 -0.5,-0.5 z" /><path
       id="path58"
       d="M 64.5,69.5 H 62 c -0.3,0 -0.5,0.2 -0.5,0.5 0,0.3 0.2,0.5 0.5,0.5 h 2.5 c 0.3,0 0.5,-0.2 0.5,-0.5 0,-0.3 -0.3,-0.5 -0.5,-0.5 z" /><path
       id="path60"
       d="m 29.2,69.5 h -2.5 c -0.3,0 -0.5,0.2 -0.5,0.5 0,0.3 0.2,0.5 0.5,0.5 h 2.5 c 0.3,0 0.5,-0.2 0.5,-0.5 0,-0.3 -0.2,-0.5 -0.5,-0.5 z" /><path
       id="path62"
       d="m 54.4,69.5 h -2.5 c -0.3,0 -0.5,0.2 -0.5,0.5 0,0.3 0.2,0.5 0.5,0.5 h 2.5 c 0.3,0 0.5,-0.2 0.5,-0.5 0,-0.3 -0.2,-0.5 -0.5,-0.5 z" /><path
       id="path64"
       d="M 69.5,69.5 H 67 c -0.3,0 -0.5,0.2 -0.5,0.5 0,0.3 0.2,0.5 0.5,0.5 h 2.5 c 0.3,0 0.5,-0.2 0.5,-0.5 0,-0.3 -0.2,-0.5 -0.5,-0.5 z" /><path
       id="path66"
       d="m 71.5,70 c 0,0.3 0.2,0.5 0.5,0.5 h 2.5 c 0.3,0 0.5,-0.2 0.5,-0.5 0,-0.3 -0.2,-0.5 -0.5,-0.5 H 72 c -0.3,0 -0.5,0.2 -0.5,0.5 z" /><path
       id="path68"
       d="m 76.5,70 c 0,0.3 0.2,0.5 0.5,0.5 h 2.5 c 0.3,0 0.5,-0.2 0.5,-0.5 0,-0.3 -0.2,-0.5 -0.5,-0.5 H 77 c -0.2,0 -0.5,0.2 -0.5,0.5 z" /><path
       id="path70"
       d="m 59.4,69.5 h -2.5 c -0.3,0 -0.5,0.2 -0.5,0.5 0,0.3 0.2,0.5 0.5,0.5 h 2.5 c 0.3,0 0.5,-0.2 0.5,-0.5 0,-0.3 -0.2,-0.5 -0.5,-0.5 z" /><path
       id="path72"
       d="m 24.2,69.5 h -2.5 c -0.3,0 -0.5,0.2 -0.5,0.5 0,0.3 0.2,0.5 0.5,0.5 h 2.5 c 0.3,0 0.5,-0.2 0.5,-0.5 0,-0.3 -0.3,-0.5 -0.5,-0.5 z" /><path
       id="path74"
       d="m 50,76.9 c -0.3,0 -0.5,0.2 -0.5,0.5 v 2.5 c 0,0.3 0.2,0.5 0.5,0.5 0.3,0 0.5,-0.2 0.5,-0.5 v -2.5 c 0,-0.3 -0.2,-0.5 -0.5,-0.5 z" /><path
       id="path76"
       d="m 50,71.8 c -0.3,0 -0.5,0.2 -0.5,0.5 v 2.5 c 0,0.3 0.2,0.5 0.5,0.5 0.3,0 0.5,-0.2 0.5,-0.5 v -2.5 c 0,-0.2 -0.2,-0.5 -0.5,-0.5 z" /><path
       id="path78"
       d="m 50,81.9 c -0.3,0 -0.5,0.2 -0.5,0.5 v 2.5 c 0,0.3 0.2,0.5 0.5,0.5 0.3,0 0.5,-0.2 0.5,-0.5 v -2.5 c 0,-0.3 -0.2,-0.5 -0.5,-0.5 z" /><path
       id="path80"
       d="m 55.9,40 c 0,-0.3 -0.2,-0.5 -0.5,-0.5 h -2.5 c -0.3,0 -0.5,0.2 -0.5,0.5 0,0.3 0.2,0.5 0.5,0.5 h 2.5 c 0.2,0 0.5,-0.2 0.5,-0.5 z" /><path
       id="path82"
       d="m 65.9,40 c 0,-0.3 -0.2,-0.5 -0.5,-0.5 h -2.5 c -0.3,0 -0.5,0.2 -0.5,0.5 0,0.3 0.2,0.5 0.5,0.5 h 2.5 c 0.3,0 0.5,-0.2 0.5,-0.5 z" /><path
       id="path84"
       d="m 47.8,40.5 h 2.5 c 0.3,0 0.5,-0.2 0.5,-0.5 0,-0.3 -0.2,-0.5 -0.5,-0.5 h -2.5 c -0.3,0 -0.5,0.2 -0.5,0.5 0,0.3 0.2,0.5 0.5,0.5 z" /><path
       id="path86"
       d="m 45.3,39.5 h -2.5 c -0.3,0 -0.5,0.2 -0.5,0.5 0,0.3 0.2,0.5 0.5,0.5 h 2.5 c 0.3,0 0.5,-0.2 0.5,-0.5 0,-0.3 -0.2,-0.5 -0.5,-0.5 z" /><path
       id="path88"
       d="m 40.3,39.5 h -2.5 c -0.3,0 -0.5,0.2 -0.5,0.5 0,0.3 0.2,0.5 0.5,0.5 h 2.5 c 0.3,0 0.5,-0.2 0.5,-0.5 0,-0.3 -0.3,-0.5 -0.5,-0.5 z" /><path
       id="path90"
       d="m 60.9,40 c 0,-0.3 -0.2,-0.5 -0.5,-0.5 h -2.5 c -0.3,0 -0.5,0.2 -0.5,0.5 0,0.3 0.2,0.5 0.5,0.5 h 2.5 c 0.3,0 0.5,-0.2 0.5,-0.5 z" /><path
       id="path92"
       d="m 35.2,39.5 h -1.6 l 1.1,-2 c 0,-0.1 0.1,-0.2 0.1,-0.3 0,-0.2 -0.1,-0.3 -0.3,-0.4 -0.2,-0.1 -0.6,0 -0.7,0.2 l -1.3,2.2 c 0,0 0,0.1 0,0.1 l -1.8,-1 c -0.2,-0.1 -0.5,-0.1 -0.7,0.2 0,0.1 -0.1,0.2 -0.1,0.3 0,0.2 0.1,0.3 0.3,0.4 l 2.2,1.3 c 0,0 0,0 0,0 0.1,0 0.2,0.1 0.2,0.1 h 2.5 c 0.3,0 0.5,-0.2 0.5,-0.5 0,-0.3 -0.1,-0.6 -0.4,-0.6 z" /><path
       id="path94"
       d="m 50.4,68.4 c 0,0.2 0.1,0.3 0.3,0.4 0.1,0 0.2,0.1 0.3,0.1 0.2,0 0.4,-0.1 0.4,-0.3 l 1.3,-2.2 c 0,-0.1 0.1,-0.2 0.1,-0.3 0,-0.2 -0.1,-0.3 -0.3,-0.4 -0.2,-0.1 -0.5,0 -0.7,0.2 l -1.3,2.2 c 0,0.1 -0.1,0.2 -0.1,0.3 z" /><path
       id="path96"
       d="m 55.5,59.4 c 0,0.1 -0.1,0.2 -0.1,0.3 0,0.2 0.1,0.3 0.3,0.4 0.1,0 0.2,0.1 0.3,0.1 0.2,0 0.3,-0.1 0.4,-0.3 l 1.3,-2.2 c 0,-0.1 0.1,-0.2 0.1,-0.3 0,-0.2 -0.1,-0.3 -0.3,-0.4 -0.2,-0.1 -0.5,0 -0.7,0.2 z" /><path
       id="path98"
       d="m 60.6,50.7 c 0,0.1 -0.1,0.2 -0.1,0.3 0,0.2 0.1,0.3 0.3,0.4 0.1,0 0.2,0.1 0.2,0.1 0.2,0 0.3,-0.1 0.4,-0.3 L 62.7,49 c 0,-0.1 0.1,-0.2 0.1,-0.3 0,-0.2 -0.1,-0.3 -0.3,-0.4 -0.2,-0.1 -0.5,0 -0.7,0.2 z" /><path
       id="path100"
       d="m 65,43.9 c -0.2,-0.1 -0.6,0 -0.7,0.2 L 63,46.3 c 0,0.1 -0.1,0.2 -0.1,0.3 0,0.2 0.1,0.3 0.3,0.4 0.1,0.1 0.2,0.1 0.3,0.1 0.2,0 0.4,-0.1 0.4,-0.3 l 1.3,-2.2 c 0,-0.1 0.1,-0.2 0.1,-0.2 0,-0.2 -0.1,-0.4 -0.3,-0.5 z" /><path
       id="path102"
       d="M 54.3,61.6 53,63.8 c 0,0.1 -0.1,0.2 -0.1,0.3 0,0.2 0.1,0.3 0.3,0.4 0.1,0 0.2,0.1 0.3,0.1 0.2,0 0.3,-0.1 0.4,-0.3 l 1.3,-2.2 c 0,-0.1 0.1,-0.2 0.1,-0.3 0,-0.2 -0.1,-0.3 -0.3,-0.4 -0.3,-0.1 -0.6,-0.1 -0.7,0.2 z" /><path
       id="path104"
       d="M 59.3,52.8 58,55 c 0,0.1 -0.1,0.2 -0.1,0.3 0,0.2 0.1,0.3 0.3,0.4 0.1,0 0.2,0.1 0.3,0.1 0.2,0 0.3,-0.1 0.4,-0.3 l 1.3,-2.2 c 0,-0.1 0.1,-0.2 0.1,-0.3 0,-0.2 -0.1,-0.3 -0.3,-0.4 -0.2,-0.1 -0.5,0 -0.7,0.2 z" /><path
       id="path106"
       d="m 34.1,41.4 c -0.1,-0.2 -0.5,-0.3 -0.7,-0.2 -0.2,0.1 -0.2,0.3 -0.3,0.4 0,0.1 0,0.2 0.1,0.3 l 1.3,2.2 c 0.1,0.2 0.3,0.3 0.4,0.3 0.1,0 0.2,0 0.3,-0.1 0.2,-0.1 0.3,-0.3 0.3,-0.5 0,-0.1 0,-0.2 -0.1,-0.2 z" /><path
       id="path108"
       d="m 42.5,57.4 c 0.1,0 0.2,0 0.2,-0.1 0.2,-0.1 0.3,-0.3 0.3,-0.4 0,-0.1 0,-0.2 -0.1,-0.2 l -1.3,-2.2 c -0.1,-0.2 -0.5,-0.3 -0.7,-0.2 -0.2,0.1 -0.3,0.3 -0.3,0.4 0,0.1 0,0.2 0.1,0.3 l 1.3,2.2 c 0.1,0.1 0.3,0.2 0.5,0.2 z" /><path
       id="path110"
       d="m 47.5,66.1 c 0.1,0 0.2,0 0.3,-0.1 0.2,-0.1 0.3,-0.3 0.3,-0.5 0,-0.1 0,-0.2 -0.1,-0.2 L 46.7,63.1 C 46.5,63 46.2,62.9 46,63 c -0.2,0.1 -0.2,0.3 -0.3,0.4 0,0.1 0,0.2 0.1,0.3 l 1.3,2.2 c 0,0.1 0.2,0.2 0.4,0.2 z" /><path
       id="path112"
       d="m 44.1,58.8 c -0.1,-0.2 -0.5,-0.3 -0.7,-0.2 -0.2,0.1 -0.2,0.3 -0.3,0.4 0,0.1 0,0.2 0.1,0.3 l 1.3,2.2 c 0.1,0.2 0.3,0.3 0.4,0.3 0.1,0 0.2,0 0.3,-0.1 0.2,-0.1 0.3,-0.3 0.3,-0.4 0,-0.1 0,-0.2 -0.1,-0.2 z" /><path
       id="path114"
       d="m 37.4,48.7 c 0.1,0 0.2,0 0.3,-0.1 C 37.9,48.5 38,48.3 38,48.2 38,48.1 38,48 37.9,48 l -1.3,-2.2 c -0.1,-0.2 -0.5,-0.3 -0.7,-0.2 -0.1,0.1 -0.3,0.2 -0.3,0.4 0,0.1 0,0.2 0.1,0.3 l 1.3,2.2 c 0.1,0.1 0.2,0.2 0.4,0.2 z" /><path
       id="path116"
       d="m 39.1,50.1 c -0.1,-0.2 -0.5,-0.3 -0.7,-0.2 -0.2,0.1 -0.3,0.2 -0.3,0.4 0,0.1 0,0.2 0.1,0.3 l 1.3,2.2 c 0.1,0.2 0.3,0.3 0.4,0.3 0.1,0 0.2,0 0.3,-0.1 0.2,-0.1 0.3,-0.3 0.3,-0.4 0,-0.1 0,-0.2 -0.1,-0.2 z" /><path
       id="path118"
       d="m 19.6,33 c 0.2,0 0.4,-0.1 0.4,-0.3 0,-0.1 0.1,-0.2 0.1,-0.3 0,-0.2 -0.1,-0.3 -0.2,-0.4 l -2.2,-1.3 c -0.2,-0.1 -0.6,0 -0.7,0.2 0,0.1 -0.1,0.2 -0.1,0.3 0,0.2 0.1,0.3 0.3,0.4 l 2.2,1.3 c 0,0 0.1,0.1 0.2,0.1 z" /><path
       id="path120"
       d="m 25.9,36.7 2.2,1.3 c 0.1,0 0.2,0.1 0.3,0.1 0.2,0 0.3,-0.1 0.4,-0.3 0,-0.1 0.1,-0.2 0.1,-0.3 0,-0.2 -0.1,-0.3 -0.3,-0.4 l -2.2,-1.3 c -0.2,-0.1 -0.6,0 -0.7,0.2 0,0.1 -0.1,0.2 -0.1,0.3 0.1,0.1 0.2,0.3 0.3,0.4 z" /><path
       id="path122"
       d="m 23.7,35.4 c 0.1,0 0.2,0.1 0.3,0.1 0.2,0 0.3,-0.1 0.4,-0.3 0,-0.1 0.1,-0.2 0.1,-0.3 0,-0.2 -0.1,-0.3 -0.3,-0.4 L 22,33.3 c -0.2,-0.1 -0.5,0 -0.7,0.2 0,0.1 -0.1,0.2 -0.1,0.3 0,0.2 0.1,0.3 0.2,0.4 z" /><path
       id="path124"
       d="m 76,35.5 c 0.1,0 0.2,0 0.3,-0.1 l 2.2,-1.3 c 0.2,-0.1 0.3,-0.3 0.3,-0.4 0,-0.1 0,-0.2 -0.1,-0.2 -0.1,-0.2 -0.5,-0.3 -0.7,-0.2 l -2.2,1.3 c -0.1,0.1 -0.2,0.3 -0.3,0.4 0,0.1 0,0.2 0.1,0.3 0.1,0.1 0.2,0.2 0.4,0.2 z" /><path
       id="path126"
       d="m 80.4,33 c 0.1,0 0.2,0 0.3,-0.1 l 2.2,-1.3 c 0.2,-0.1 0.3,-0.3 0.3,-0.5 0,-0.1 0,-0.2 -0.1,-0.2 C 83,30.7 82.6,30.6 82.4,30.7 L 80.1,32 c -0.2,0.1 -0.2,0.3 -0.3,0.4 0,0.1 0,0.2 0.1,0.3 0.1,0.2 0.3,0.3 0.5,0.3 z" /><path
       id="path128"
       d="m 71.7,38 c 0.1,0 0.2,0 0.3,-0.1 l 2.2,-1.3 c 0.2,-0.1 0.3,-0.3 0.3,-0.5 0,-0.1 0,-0.2 -0.1,-0.2 -0.1,-0.2 -0.5,-0.3 -0.7,-0.2 L 71.5,37 c -0.2,0.1 -0.3,0.3 -0.3,0.4 0,0.1 0,0.2 0.1,0.3 0,0.2 0.2,0.3 0.4,0.3 z" /><path
       id="path130"
       d="m 65.6,41.9 c 0,0.1 -0.1,0.2 -0.1,0.3 0,0.2 0.1,0.3 0.3,0.4 0.1,0 0.2,0.1 0.3,0.1 0.2,0 0.3,-0.1 0.4,-0.3 l 0.8,-1.4 1.2,2 c 0.1,0.2 0.3,0.2 0.4,0.2 0.1,0 0.2,0 0.3,-0.1 0.2,-0.1 0.3,-0.3 0.3,-0.4 0,-0.1 0,-0.2 -0.1,-0.3 l -1.3,-2.2 c 0,0 -0.1,-0.1 -0.1,-0.1 l 1.8,-1 c 0.2,-0.1 0.3,-0.3 0.3,-0.4 0,-0.1 0,-0.2 -0.1,-0.2 -0.1,-0.2 -0.5,-0.3 -0.7,-0.2 L 67,39.6 c 0,0 0,0 0,0 0,0 0,0 -0.1,0.1 0,0 -0.1,0.1 -0.1,0.1 0,0 0,0 0,0 z" /></g></svg>
