<?xml version="1.0" encoding="UTF-8" standalone="no"?>
<svg
   xmlns:dc="http://purl.org/dc/elements/1.1/"
   xmlns:cc="http://creativecommons.org/ns#"
   xmlns:rdf="http://www.w3.org/1999/02/22-rdf-syntax-ns#"
   xmlns:svg="http://www.w3.org/2000/svg"
   xmlns="http://www.w3.org/2000/svg"
   xmlns:sodipodi="http://sodipodi.sourceforge.net/DTD/sodipodi-0.dtd"
   xmlns:inkscape="http://www.inkscape.org/namespaces/inkscape"
   inkscape:version="1.0 (4035a4fb49, 2020-05-01)"
   height="100"
   width="100"
   sodipodi:docname="isochrone1.svg"
   id="svg8"
   xml:space="preserve"
   viewBox="0 0 100 100"
   y="0px"
   x="0px"
   version="1.1"><metadata
     id="metadata14"><rdf:RDF><cc:Work
         rdf:about=""><dc:format>image/svg+xml</dc:format><dc:type
           rdf:resource="http://purl.org/dc/dcmitype/StillImage" /><dc:title></dc:title></cc:Work></rdf:RDF></metadata><defs
     id="defs12" /><sodipodi:namedview
     inkscape:current-layer="svg8"
     inkscape:window-maximized="1"
     inkscape:window-y="-6"
     inkscape:window-x="-6"
     inkscape:cy="74.023438"
     inkscape:cx="54.296875"
     inkscape:zoom="5.12"
     inkscape:lockguides="true"
     showgrid="false"
     id="namedview10"
     inkscape:window-height="850"
     inkscape:window-width="1368"
     inkscape:pageshadow="2"
     inkscape:pageopacity="0"
     guidetolerance="10"
     gridtolerance="10"
     objecttolerance="10"
     borderopacity="1"
     bordercolor="#666666"
     pagecolor="#ffffff" /><path
     id="path2"
     d="M 99,0 H 98 89.3 50 36.8 9.5 2 1 0 v 1 1 15.7 11.6 31 28.6 9.1 1 1 h 1 1 21.1 11.5 16.7 29.3 14.6 2.8 1 1 V 99 98 69.3 64.5 57.1 24 20.9 18.6 2 1 0 Z M 85,2 67.6,10.3 56.3,3.6 53.6,2 Z M 37.5,74 2,87.3 V 61.5 Z M 2,59.5 V 31.8 l 6.1,6.9 29.1,33 z M 2,28.8 V 18.7 l 9.7,1 16.1,1.7 1,4.4 9.8,44.6 z m 32,11.9 -4,-18.6 29.5,11.7 2.4,1 -21.1,36.4 z M 31.9,20.8 66.3,12.7 62.5,33 Z M 49.7,59.6 63,36.7 75.8,78 41.9,73.2 Z m 15,-24.1 5.9,1.2 15.8,3.1 -9.2,35.8 z m 12.1,44.9 7.4,12.3 0.6,0.9 L 55,87.7 Z m 4.7,4 -3,-4.9 L 98,66.4 v 2.7 L 86.7,92.9 Z m -2.7,-7.5 9.1,-35.4 3.1,4.8 7,11.1 V 64 Z M 97.9,53.5 88.7,39.1 98,26.9 V 53.7 Z M 87.1,38 66.8,34 98,22.3 v 1.3 z M 64.5,32.7 68.3,12.5 98,19.4 v 0.8 z M 37.4,2 h 12.3 l 15.2,9 -34.7,8.2 z M 35.3,2 28.3,18.8 25.2,15.7 11.9,2 Z M 9.1,2 26,19.3 2,16.7 V 2 Z M 22.6,98 H 2 V 89.4 L 10.9,86.1 37.8,76 Z m 11.7,0 H 25 l 1,-1.5 14.4,-21 9.4,12.1 -3.8,2.6 z m 3.6,0 12.4,-8.3 0.1,8.3 z m 4.7,-22.8 29.1,4.1 1.4,0.2 -21.5,7.2 z M 80.5,98 h -0.2 -28 l -0.1,-6.6 v -2.3 l 32.1,6.3 z m 3.4,0 0.5,-0.3 2.4,-1.6 4.1,2 h -7 z m 11.6,0 -2.2,-1 -5.2,-2.5 10,-20.8 V 98 Z M 98,17.4 96.7,17.1 70.5,11 89.6,2 H 98 Z" /></svg>
