<?xml version="1.0" encoding="UTF-8" standalone="no"?>
<svg
   xmlns:dc="http://purl.org/dc/elements/1.1/"
   xmlns:cc="http://creativecommons.org/ns#"
   xmlns:rdf="http://www.w3.org/1999/02/22-rdf-syntax-ns#"
   xmlns:svg="http://www.w3.org/2000/svg"
   xmlns="http://www.w3.org/2000/svg"
   xmlns:sodipodi="http://sodipodi.sourceforge.net/DTD/sodipodi-0.dtd"
   xmlns:inkscape="http://www.inkscape.org/namespaces/inkscape"
   inkscape:version="1.0 (4035a4fb49, 2020-05-01)"
   height="100"
   width="100"
   sodipodi:docname="isochrone5.svg"
   id="svg8"
   xml:space="preserve"
   viewBox="0 0 100 100"
   y="0px"
   x="0px"
   version="1.1"><metadata
     id="metadata14"><rdf:RDF><cc:Work
         rdf:about=""><dc:format>image/svg+xml</dc:format><dc:type
           rdf:resource="http://purl.org/dc/dcmitype/StillImage" /><dc:title></dc:title></cc:Work></rdf:RDF></metadata><defs
     id="defs12" /><sodipodi:namedview
     inkscape:current-layer="svg8"
     inkscape:window-maximized="1"
     inkscape:window-y="-6"
     inkscape:window-x="-6"
     inkscape:cy="72.345276"
     inkscape:cx="50"
     inkscape:zoom="4.784"
     showgrid="false"
     id="namedview10"
     inkscape:window-height="850"
     inkscape:window-width="1368"
     inkscape:pageshadow="2"
     inkscape:pageopacity="0"
     guidetolerance="10"
     gridtolerance="10"
     objecttolerance="10"
     borderopacity="1"
     bordercolor="#666666"
     pagecolor="#ffffff" /><path
     id="path2"
     d="m 90,64 c -0.6,0 -1.2,0.3 -1.6,0.8 L 53.9,51 C 54,50.7 54,50.3 54,50 54,49 53.7,48.2 53.2,47.5 L 81,19.7 c 0.3,0.2 0.6,0.3 1,0.3 1.1,0 2,-0.9 2,-2 0,-1.1 -0.9,-2 -2,-2 -1.1,0 -2,0.9 -2,2 0,0.4 0.1,0.7 0.3,1 L 52.5,46.8 C 51.8,46.3 51,46 50,46 c -1,0 -1.8,0.3 -2.5,0.8 L 19.7,19 c 0.2,-0.3 0.3,-0.6 0.3,-1 0,-1.1 -0.9,-2 -2,-2 -1.1,0 -2,0.9 -2,2 0,1.1 0.9,2 2,2 0.4,0 0.7,-0.1 1,-0.3 L 46.1,46.8 27.9,34.7 C 28,34.5 28,34.2 28,34 c 0,-1.1 -0.9,-2 -2,-2 -1.1,0 -2,0.9 -2,2 0,1.1 0.9,2 2,2 0.5,0 1,-0.2 1.3,-0.5 L 46.4,48.2 C 46.2,48.8 46,49.4 46,50 c 0,0.6 0.2,1.2 0.4,1.8 L 27.3,64.5 C 27,64.2 26.5,64 26,64 c -1.1,0 -2,0.9 -2,2 0,1.1 0.9,2 2,2 1.1,0 2,-0.9 2,-2 0,-0.2 0,-0.5 -0.1,-0.7 L 47,52.6 c 0.2,0.3 0.5,0.5 0.8,0.7 L 34.4,80 c -0.1,0 -0.3,0 -0.4,0 -1.1,0 -2,0.9 -2,2 0,1.1 0.9,2 2,2 1.1,0 2,-0.9 2,-2 0,-0.6 -0.3,-1.1 -0.7,-1.5 L 48.7,53.8 c 0.4,0.1 0.8,0.2 1.3,0.2 0.5,0 0.9,-0.1 1.3,-0.2 L 64.7,80.5 C 64.3,80.9 64,81.4 64,82 c 0,1.1 0.9,2 2,2 1.1,0 2,-0.9 2,-2 0,-1.1 -0.9,-2 -2,-2 -0.1,0 -0.3,0 -0.4,0 L 52.2,53.3 c 0.3,-0.2 0.6,-0.4 0.8,-0.7 L 72.1,65.3 C 72,65.5 72,65.8 72,66 c 0,1.1 0.9,2 2,2 1.1,0 2,-0.9 2,-2 0,-1.1 -0.9,-2 -2,-2 -0.5,0 -1,0.2 -1.3,0.5 L 54.3,52.2 88,65.7 c 0,0.1 0,0.2 0,0.3 0,1.1 0.9,2 2,2 1.1,0 2,-0.9 2,-2 0,-1.1 -0.9,-2 -2,-2 z" /></svg>
