<?xml version="1.0" encoding="UTF-8" standalone="no"?>
<svg
   xmlns:dc="http://purl.org/dc/elements/1.1/"
   xmlns:cc="http://creativecommons.org/ns#"
   xmlns:rdf="http://www.w3.org/1999/02/22-rdf-syntax-ns#"
   xmlns:svg="http://www.w3.org/2000/svg"
   xmlns="http://www.w3.org/2000/svg"
   xmlns:sodipodi="http://sodipodi.sourceforge.net/DTD/sodipodi-0.dtd"
   xmlns:inkscape="http://www.inkscape.org/namespaces/inkscape"
   version="1.1"
   x="0px"
   y="0px"
   viewBox="0 0 100 100"
   xml:space="preserve"
   id="svg40"
   sodipodi:docname="isochrone4a.svg"
   width="100"
   height="100"
   inkscape:version="1.0 (4035a4fb49, 2020-05-01)"><metadata
     id="metadata46"><rdf:RDF><cc:Work
         rdf:about=""><dc:format>image/svg+xml</dc:format><dc:type
           rdf:resource="http://purl.org/dc/dcmitype/StillImage" /><dc:title></dc:title></cc:Work></rdf:RDF></metadata><defs
     id="defs44" /><sodipodi:namedview
     inkscape:document-rotation="0"
     pagecolor="#ffffff"
     bordercolor="#666666"
     borderopacity="1"
     objecttolerance="10"
     gridtolerance="10"
     guidetolerance="10"
     inkscape:pageopacity="0"
     inkscape:pageshadow="2"
     inkscape:window-width="1261"
     inkscape:window-height="850"
     id="namedview42"
     showgrid="false"
     inkscape:zoom="3.3827988"
     inkscape:cx="5.9815999"
     inkscape:cy="68.047053"
     inkscape:window-x="64"
     inkscape:window-y="23"
     inkscape:window-maximized="0"
     inkscape:current-layer="svg40" /><path
     d="m 49.5,56 v 22.1 c 0.2,0 0.3,-0.1 0.5,-0.1 0.2,0 0.3,0 0.5,0.1 V 56 c -0.2,0 -0.3,0 -0.5,0 -0.2,0 -0.3,0 -0.5,0 z"
     id="path2" /><path
     d="m 56,50.5 h 6.1 C 62.1,50.3 62,50.2 62,50 c 0,-0.2 0,-0.3 0.1,-0.5 H 56 c 0,0.2 0,0.3 0,0.5 0,0.2 0,0.3 0,0.5 z"
     id="path4" /><path
     d="m 55.7,51.8 c -0.1,0.3 -0.2,0.6 -0.4,0.9 L 86.1,65 c 0.1,-0.3 0.2,-0.6 0.4,-0.9 z"
     id="path6" /><path
     d="m 43.3,62.2 c 0.3,0.1 0.6,0.2 0.9,0.4 l 3.6,-7.1 C 47.5,55.4 47.2,55.2 46.9,55 Z"
     id="path10" /><path
     sodipodi:nodetypes="ccccc"
     style="stroke-width:0.734969"
     d="M 45.05485,46.561662 24.051229,31.478596 c -0.177226,0.182878 -0.19768,0.566085 -0.46352,0.688003 l 20.951364,15.083067 z"
     id="path12" /><path
     d="m 54.6,46.1 25,-25 c -0.3,-0.2 -0.5,-0.4 -0.7,-0.7 l -25,25 c 0.2,0.2 0.5,0.5 0.7,0.7 z"
     id="path14" /><path
     d="m 13.5,64.1 c 0.2,0.3 0.3,0.6 0.4,0.9 L 44.7,52.7 c -0.1,-0.3 -0.3,-0.6 -0.4,-0.9 z"
     id="path16" /><circle
     cx="50"
     cy="50"
     r="4"
     id="circle18" /><circle
     cx="50"
     cy="82"
     r="2"
     id="circle20" /><circle
     cx="66"
     cy="50"
     r="2"
     id="circle24" /><circle
     cx="42"
     cy="66"
     r="2"
     id="circle26" /><circle
     cx="20.508362"
     cy="29.496656"
     r="2"
     id="circle28" /><circle
     cx="10"
     cy="66"
     r="2"
     id="circle30" /><circle
     cx="82"
     cy="18"
     r="2"
     id="circle32" /><circle
     cx="90"
     cy="66"
     r="2"
     id="circle34" /><path
     id="path150"
     d="m 36.360424,41.533655 0.739033,4.582005 -2.069292,7.242523 -2.364906,3.399552 4.286391,3.547358 4.877618,6.355684 7.83375,-2.956132 10.642075,1.478066 9.16401,-6.651297 -2.956132,-8.27717 -1.921486,-13.598207 -16.702146,-3.842971 z"
     style="fill:none;stroke:#000000;stroke-width:1px;stroke-linecap:butt;stroke-linejoin:miter;stroke-opacity:1" /><path
     id="path152"
     d="M 28.526674,35.621391 29.709127,47.593726 25.127122,59.861674 32.813066,71.834008 49.5,78.1 78.633112,61.783159 72.868655,47.445919 71.834008,28.526674 46.263466,22.318797 Z"
     style="fill:none;stroke:#000000;stroke-width:1px;stroke-linecap:butt;stroke-linejoin:miter;stroke-opacity:1" /></svg>
