<?xml version="1.0" encoding="UTF-8" standalone="no"?>
<svg
   xmlns:dc="http://purl.org/dc/elements/1.1/"
   xmlns:cc="http://creativecommons.org/ns#"
   xmlns:rdf="http://www.w3.org/1999/02/22-rdf-syntax-ns#"
   xmlns:svg="http://www.w3.org/2000/svg"
   xmlns="http://www.w3.org/2000/svg"
   xmlns:sodipodi="http://sodipodi.sourceforge.net/DTD/sodipodi-0.dtd"
   xmlns:inkscape="http://www.inkscape.org/namespaces/inkscape"
   inkscape:version="1.0 (4035a4fb49, 2020-05-01)"
   height="100"
   width="100"
   sodipodi:docname="isochrone7.svg"
   id="svg40"
   xml:space="preserve"
   viewBox="0 0 100 100"
   y="0px"
   x="0px"
   version="1.1"><metadata
     id="metadata46"><rdf:RDF><cc:Work
         rdf:about=""><dc:format>image/svg+xml</dc:format><dc:type
           rdf:resource="http://purl.org/dc/dcmitype/StillImage" /><dc:title></dc:title></cc:Work></rdf:RDF></metadata><defs
     id="defs44" /><sodipodi:namedview
     inkscape:current-layer="svg40"
     inkscape:window-maximized="1"
     inkscape:window-y="-6"
     inkscape:window-x="-6"
     inkscape:cy="63.680811"
     inkscape:cx="50"
     inkscape:zoom="4.784"
     showgrid="false"
     id="namedview42"
     inkscape:window-height="850"
     inkscape:window-width="1368"
     inkscape:pageshadow="2"
     inkscape:pageopacity="0"
     guidetolerance="10"
     gridtolerance="10"
     objecttolerance="10"
     borderopacity="1"
     bordercolor="#666666"
     pagecolor="#ffffff" /><path
     id="path2"
     d="m 54.6,46.1 25,-25 c -0.3,-0.2 -0.5,-0.4 -0.7,-0.7 l -25,25 c 0.2,0.2 0.5,0.5 0.7,0.7 z" /><path
     id="path4"
     d="m 46.1,45.4 -25,-25 c -0.2,0.3 -0.4,0.5 -0.7,0.7 l 25,25 c 0.2,-0.2 0.5,-0.5 0.7,-0.7 z" /><path
     id="path6"
     d="m 70.4,64.2 c 0.2,-0.3 0.3,-0.6 0.6,-0.8 L 55.3,52.9 c -0.2,0.3 -0.3,0.6 -0.6,0.8 z" /><path
     id="path8"
     d="m 55.7,51.8 c -0.1,0.3 -0.2,0.6 -0.4,0.9 L 86.1,65 c 0.1,-0.3 0.2,-0.6 0.4,-0.9 z" /><path
     id="path10"
     d="m 63.8,78.7 c 0.3,-0.2 0.6,-0.3 0.9,-0.4 L 53.1,55.1 c -0.3,0.2 -0.6,0.3 -0.9,0.5 z" /><path
     id="path12"
     d="m 35.3,78.2 c 0.3,0.1 0.6,0.2 0.9,0.4 L 47.8,55.5 C 47.5,55.4 47.2,55.2 46.9,55 Z" /><path
     id="path14"
     d="m 29.6,35.8 c -0.2,0.3 -0.3,0.6 -0.6,0.8 l 15.7,10.5 c 0.2,-0.3 0.3,-0.6 0.6,-0.8 z" /><path
     id="path16"
     d="m 29,63.4 c 0.2,0.3 0.4,0.5 0.6,0.8 L 45.3,53.7 c -0.2,-0.3 -0.4,-0.5 -0.6,-0.8 z" /><circle
     id="circle18"
     r="4"
     cy="50"
     cx="50" /><circle
     id="circle20"
     r="2"
     cy="82"
     cx="66" /><circle
     id="circle22"
     r="2"
     cy="66"
     cx="74" /><circle
     id="circle24"
     r="2"
     cy="82"
     cx="34" /><circle
     id="circle26"
     r="2"
     cy="18"
     cx="18" /><circle
     id="circle28"
     r="2"
     cy="34"
     cx="26" /><circle
     id="circle30"
     r="2"
     cy="66"
     cx="26" /><circle
     id="circle32"
     r="2"
     cy="18"
     cx="82" /><circle
     id="circle34"
     r="2"
     cy="66"
     cx="90" /></svg>
